<?xml version="1.0" encoding="utf-8" ?><svg xmlns="http://www.w3.org/2000/svg" xmlns:xlink="http://www.w3.org/1999/xlink" width="1920" height="1281" viewBox="0 0 1920 1281"><path fill="#8F707F" transform="matrix(0.46875 0 0 0.469059 -6.10352e-05 0)" d="M0 0L4096 0L4096 2731L0 2731L0 0Z"/><path fill="#FAF8F7" transform="matrix(0.46875 0 0 0.469059 -6.10352e-05 0)" d="M961.85 1075.13L1200.69 1075.21C1226.1 1075.25 1259.61 1074.79 1284.91 1076.16C1290.34 1076.46 1293.72 1079.65 1295.99 1082.62C1294.92 1086.76 1295.75 1086.67 1290.66 1090.08C1287.35 1092.3 1278.09 1094.12 1273.42 1094.03C1242.78 1093.43 1211.66 1093.55 1181.05 1093.5C1111.92 1093.27 1042.79 1093.35 973.669 1093.73L973.739 1207.88C1047.21 1256.87 1129.46 1304.56 1203.43 1353.57C1227.28 1369.36 1278.09 1397.62 1295.73 1414.05C1297.78 1422.22 1297.69 1431.49 1297.7 1439.79C1297.72 1499.18 1298.17 1558.6 1297.79 1617.99C1297.76 1623.36 1296.06 1629.43 1293.58 1634.51C1284.16 1637.87 1187.89 1635.38 1168.75 1635.26L1074.27 1634.91C1032.35 1611.44 990.228 1575.6 950.228 1549.83C944.662 1546.24 939.905 1537.76 945.438 1533.14C961.873 1532.88 989.406 1554.79 1001.34 1562.87C1024.86 1579 1048.78 1594.87 1073.1 1610.46C1133.14 1549 1208.43 1479.26 1271.69 1418.89C1200.57 1371.16 1119.45 1324.33 1047.49 1276.77C1022.85 1260.48 973.574 1232.91 954.201 1216.18C951.183 1176.02 954.118 1133.52 954.357 1093.22C954.396 1086.55 956.444 1080.81 961.85 1075.13Z"/><path fill="#8F707F" transform="matrix(0.46875 0 0 0.469059 -6.10352e-05 0)" d="M1275.43 1442.44L1276.96 1443.42C1279.14 1448.99 1278.22 1485.32 1278.22 1493.99L1278.19 1617.33C1221.66 1617.94 1158.91 1616.5 1101.85 1616.08L1098.62 1615.28C1099.37 1609.63 1257.39 1459.29 1275.43 1442.44Z"/><path fill="#FAF8F7" transform="matrix(0.46875 0 0 0.469059 -6.10352e-05 0)" d="M2563.5 1076.73C2601.1 1075.98 2639.19 1076.74 2676.86 1076.28C2690.43 1076.11 2761.53 1071.57 2752.98 1089.37C2736.65 1097.3 2574.69 1095.15 2541.17 1095.47L2397.93 1233.17L2397.72 1527.04C2455.64 1527.42 2513.57 1527.43 2571.49 1527.06C2593.73 1527.01 2620.48 1526.49 2642.77 1527.65C2648.7 1527.96 2649.87 1529.99 2652.96 1532.73C2654.38 1537.54 2654.72 1537.26 2651.72 1541.66C2641.91 1548.12 2583.68 1546.43 2567.64 1546.48L2428.4 1546.73C2438.37 1553.69 2451.77 1561.21 2462.78 1567.71C2495 1585.46 2525.36 1606.3 2558.07 1624.57C2605.69 1625.34 2653.92 1624.37 2701.61 1625.06C2712.41 1625.21 2743.22 1625.07 2733.76 1637.97C2718.09 1646.29 2678.62 1644.02 2658.34 1643.96C2623.89 1644.08 2589.44 1643.64 2555.02 1642.63C2552.41 1641.51 2549.85 1640.34 2547.34 1639.11C2493.08 1612.88 2432.7 1569.63 2381.15 1540.01C2373.75 1535.76 2375.55 1437.16 2376.05 1425.75C2378.72 1365.54 2370.77 1280.29 2381.51 1223.2C2382.89 1215.86 2518.48 1088.79 2531.2 1077.46L2563.5 1076.73Z"/><path fill="#FAF8F7" transform="matrix(0.46875 0 0 0.469059 -6.10352e-05 0)" d="M1428.71 1266.92C1483.49 1216.86 1534.69 1164.19 1589 1113.8C1598.09 1105.37 1621.89 1076.24 1637.62 1077.6C1641.11 1081.1 1642.59 1086.72 1639.1 1090.47C1618.41 1112.72 1595.35 1134.21 1572.86 1155.69L1442.59 1281.38C1454.69 1295.2 1473.77 1313.21 1487.28 1326.79L1583.41 1423.42C1602.8 1442.93 1625.66 1464.92 1642.8 1485.01C1642.9 1504.49 1645.89 1617.51 1638.91 1626.97C1636.6 1630.1 1634.16 1631.03 1629.42 1632.05L1625.5 1630.12C1618.27 1618.98 1623.69 1515.89 1623.81 1493.73C1602.82 1469.47 1571.72 1439.96 1547.81 1415.92L1428.33 1295.81C1411.99 1309.66 1393.32 1329.13 1378.25 1344.11C1377.83 1360.31 1377.84 1376.51 1378.27 1392.71L1377.43 1468.73C1377.32 1480.69 1376.36 1498.67 1377.64 1510.23C1375.25 1528.43 1383.9 1629.99 1365.7 1634.52C1361.01 1632.54 1358.23 1630.81 1358.18 1626.76C1357.76 1595.44 1357.97 1564.1 1358 1532.78L1358.26 1336.32C1373.84 1319.29 1397.02 1298.5 1414.39 1281.08C1398.52 1265.4 1369.01 1241.86 1360.6 1224.32C1356.51 1215.8 1356.02 1095.09 1359.25 1083.19C1364.31 1079.05 1361.27 1080.27 1368 1078.73L1371.81 1080.9C1378.9 1092.92 1378.09 1197.35 1378.26 1216.34C1392.67 1232.46 1412.24 1251.79 1428.71 1266.92Z"/><path fill="#FAF8F7" transform="matrix(0.46875 0 0 0.469059 -6.10352e-05 0)" d="M2176.68 1092.66C2138.5 1093.66 2066.68 1091.81 2024.94 1091.53C2021.65 1091.51 2016.93 1088.24 2015.86 1085.5C2015.03 1083.37 2015.41 1081.12 2016.94 1079.17C2019.07 1076.49 2022.86 1074.16 2027.61 1074.08C2162.63 1071.64 2297.42 1076.87 2432.44 1076.99C2443.2 1077 2459.95 1078.59 2460.52 1087.26C2459.55 1088.5 2455.25 1093.44 2452.72 1093.73C2420.29 1097.47 2212.37 1088.94 2198.46 1094.93L2204.15 1095.69L2202.45 1097.41C2206.03 1100.72 2204.46 1100.74 2204.19 1104.78C2202.44 1130.22 2203.15 1156.24 2203.99 1181.69C2204.48 1206.42 2204.75 1231.16 2204.8 1255.91C2204.89 1268.04 2206.06 1294.18 2203.92 1304.69C2201.59 1302.76 2202.44 1303.71 2201.15 1301.94L2200.85 1500.26C2200.86 1520.1 2206.25 1593.45 2196.97 1606L2195.16 1606.12C2187.87 1608.2 2187.99 1608.64 2181.53 1606.53C2174.36 1599.47 2176.68 1549.47 2176.63 1538.35L2176.32 1422.93L2176.68 1092.66Z"/><path fill="#8F707F" transform="matrix(0.46875 0 0 0.469059 -6.10352e-05 0)" d="M2198.46 1094.93L2204.15 1095.69L2202.45 1097.41C2206.03 1100.72 2204.46 1100.74 2204.19 1104.78C2202.44 1130.22 2203.15 1156.24 2203.99 1181.69C2204.48 1206.42 2204.75 1231.16 2204.8 1255.91C2204.89 1268.04 2206.06 1294.18 2203.92 1304.69C2201.59 1302.76 2202.44 1303.71 2201.15 1301.94L2200.85 1500.26C2200.86 1520.1 2206.25 1593.45 2196.97 1606L2195.16 1606.12C2199.29 1572.17 2196.41 1508.7 2196.41 1471.9L2196.75 1217.64L2196.8 1140.68C2196.86 1127.62 2196.19 1107.26 2198.46 1094.93Z"/><path fill="#FAF8F7" transform="matrix(0.46875 0 0 0.469059 -6.10352e-05 0)" d="M3058.29 1073.91C3064.16 1075.19 3063.73 1075.19 3067.97 1078.26C3073.05 1088.78 3071.57 1310.28 3067.17 1325.51C3054.52 1328.29 2853.85 1324.43 2823.88 1324.16L2823.83 1529.23C2823.78 1559.82 2823.72 1590.39 2824.2 1620.97C2824.3 1626.86 2822.34 1636.18 2812.97 1638.25L2809.04 1636.29C2800.64 1625.03 2803.99 1580.47 2803.7 1565.19L2801.97 1417.62L2804.56 1197.5L2805.92 1126.5C2806.06 1117.82 2801.18 1078.07 2815.83 1076.46C2823.71 1079.83 2824.78 1083.42 2824.82 1089.6C2824.99 1112.43 2824.39 1135.27 2824.32 1158.12L2824.02 1305.71C2899.43 1306.34 2974.83 1307.39 3050.21 1308.87C3053.49 1233.76 3048.03 1157.78 3052.37 1082.61C3052.57 1079.12 3055.38 1076.61 3058.29 1073.91Z"/><path fill="#FAF8F7" transform="matrix(0.46875 0 0 0.469059 -6.10352e-05 0)" d="M1861.14 1072.74C1890.16 1072.3 1920.86 1071.41 1949.64 1073.13C1959.15 1073.7 1961.29 1081.23 1957.36 1086.71C1947.4 1092.42 1880.38 1091.2 1864.3 1091.39C1816.68 1091.88 1769.06 1092.57 1721.45 1093.44C1721.78 1163.61 1721.54 1233.78 1720.76 1303.95L1877.07 1304.67C1894.1 1304.87 1918.61 1302.74 1930.61 1309.15C1933.52 1314.14 1933.02 1311.57 1931.37 1317.21C1926.62 1320.9 1920.98 1323.06 1913.66 1322.69C1886.15 1321.27 1716.56 1325.5 1706.41 1319.86C1697.13 1300.57 1701.2 1109.12 1702.32 1075.2L1861.14 1072.74Z"/><path fill="#FAF8F7" transform="matrix(0.46875 0 0 0.469059 -6.10352e-05 0)" d="M3184.83 1632.53C3181.11 1635.6 3181.38 1635.72 3176.32 1637.61L3171.74 1636.72C3165.64 1630.21 3167.67 1583.03 3167.63 1572.23L3167.31 1451.11C3166.99 1427.15 3164.53 1402.81 3164.4 1379.12C3163.9 1286.23 3164.23 1193.2 3165.31 1100.31C3165.39 1093.07 3166.05 1082.74 3173.97 1077.73L3177.48 1078.7C3180.25 1081.07 3183.34 1083.78 3183.48 1086.9C3184.43 1106.87 3184.02 1128.24 3184.01 1148.17C3183.74 1195.56 3183.84 1242.95 3184.32 1290.33C3188.43 1281.49 3186.93 1259.57 3186.91 1249.48L3186.61 1152.88C3186.57 1140.09 3185.43 1110.37 3188.21 1099.22L3188.73 1399.65C3189.23 1448.38 3195.91 1498.01 3193.15 1547.03C3193.06 1548.68 3190.65 1549.89 3190.16 1551.43C3188.78 1555.81 3195.05 1576.96 3194.32 1579.7C3191.2 1591.48 3195.31 1623.89 3187.66 1632.04L3184.83 1632.53Z"/><path fill="#8F707F" transform="matrix(0.46875 0 0 0.469059 -6.10352e-05 0)" d="M3184.32 1290.33C3188.43 1281.49 3186.93 1259.57 3186.91 1249.48L3186.61 1152.88C3186.57 1140.09 3185.43 1110.37 3188.21 1099.22L3188.73 1399.65C3189.23 1448.38 3195.91 1498.01 3193.15 1547.03C3193.06 1548.68 3190.65 1549.89 3190.16 1551.43C3188.78 1555.81 3195.05 1576.96 3194.32 1579.7C3191.2 1591.48 3195.31 1623.89 3187.66 1632.04L3184.83 1632.53C3189.07 1520.01 3180.43 1402.59 3184.32 1290.33Z"/><path fill="#FAF8F7" transform="matrix(0.46875 0 0 0.469059 -6.10352e-05 0)" d="M1708.56 1337.74C1714.11 1339.31 1719.39 1341.9 1719.73 1346.25C1721.39 1367.13 1721.52 1388.37 1721.74 1409.28L1722.73 1538.59L1904.87 1539.49C1934.84 1539.67 1980.61 1539.04 2009.52 1540.82C2020.48 1545.91 2017.78 1550.97 2011.86 1557.54L1830.78 1557.38C1817.68 1557.36 1704.84 1559.82 1704.36 1551.35C1700.56 1484.81 1702.17 1417.35 1702.54 1350.66C1702.57 1346.11 1705.57 1341.72 1708.56 1337.74Z"/><path fill="#FAF8F7" transform="matrix(0.46875 0 0 0.469059 -6.10352e-05 0)" d="M3060.11 1343.44C3065.4 1345.3 3070.05 1348.03 3070.53 1352.28C3072.02 1365.25 3071.36 1378.5 3071.22 1391.52L3070.6 1467.29L3070.8 1571.23C3070.85 1585.96 3074.45 1630.63 3063.88 1640.91L3058.28 1639.83C3048.75 1633.03 3051.75 1607.64 3051.73 1597.18L3051.69 1525.03L3051.76 1413.77C3051.79 1394.28 3051.55 1374.44 3052.45 1354.95C3052.65 1350.51 3056.43 1347.05 3060.11 1343.44Z"/><path fill="#8F707F" transform="matrix(0.46875 0 0 0.469059 -6.10352e-05 0)" d="M1378.27 1392.71C1386.61 1401.39 1382.29 1443.86 1383.71 1456.6C1385.59 1473.39 1383.64 1493.68 1383.47 1510.64C1383.31 1517.38 1380.85 1523.71 1380.31 1530.45C1379.88 1535.95 1384.49 1545 1383.75 1549.48C1381.82 1561.17 1384.57 1618.11 1379.02 1624.9C1378.75 1600.63 1378.68 1576.35 1378.82 1552.08C1378.85 1541.85 1379.66 1519.52 1377.64 1510.23C1376.36 1498.67 1377.32 1480.69 1377.43 1468.73L1378.27 1392.71Z"/></svg>