<?xml version="1.0" encoding="utf-8" ?><svg xmlns="http://www.w3.org/2000/svg" xmlns:xlink="http://www.w3.org/1999/xlink" width="512" height="512" viewBox="0 0 512 512"><path fill="#8F707F" transform="scale(0.5 0.5)" d="M0 0L1024 0L1024 1024L0 1024L0 0Z"/><path fill="#FAF8F7" transform="scale(0.5 0.5)" d="M598.792 282.762C602.797 284.711 628.303 311.099 633.544 316.333L687.217 370.028C695.063 377.946 702.961 385.813 710.909 393.629C714.702 397.353 722.645 404.725 725.637 408.659C720.773 414.068 713.557 420.805 708.245 426.104L673.745 460.523L564.792 569.599L505.288 628.91C501.495 632.664 485.221 649.815 482.724 650.667C462.588 657.539 430.248 665.278 410.794 671.112C379.306 679.362 345.06 689.213 313.701 698.415C312.459 697.383 311.23 696.007 310.102 694.817C314.182 681.491 317.865 666.493 321.435 652.954L338.285 589.25L348.724 550.455C350.686 543.211 353.456 533.907 354.692 526.673C357.717 523.072 362.471 518.68 365.906 515.303C372.571 508.784 379.202 502.23 385.798 495.641L458.674 422.804L545.655 335.616L578.769 302.483C584.824 296.417 592.458 288.316 598.792 282.762Z"/><path fill="#8F707F" transform="scale(0.5 0.5)" d="M599.091 297.361C600.94 298.225 619.816 317.437 622.127 319.73L710.927 408.576C704.361 414.512 696.602 422.583 690.213 428.96L653.949 465.247L539.965 579.383L504.736 614.549C499.176 620.102 489.805 629.892 483.954 634.65C481.795 615.52 477.533 594.756 474.715 575.594C474.033 570.964 470.676 549.969 469.545 546.782C480.908 533.974 497.698 518.128 510.077 505.704L594.031 421.724L626.698 389.075C632.791 382.973 639.054 376.88 644.785 370.45C647.826 367.038 643.947 362.244 639.977 361.729C637.347 362.297 620.563 380.215 617.576 383.215L574.154 426.678C538.173 462.648 500.492 499.328 465.368 535.907C434.947 532.037 401.897 530.147 371.651 524.795C377.503 518.12 389.87 506.497 396.631 499.724L448.89 447.487L599.091 297.361Z"/><path fill="#8F707F" transform="scale(0.5 0.5)" d="M363.871 534.771L427.45 542.559C435.813 543.528 450.08 545.503 457.987 545.545C461.79 555.545 463.123 568.746 464.805 579.423C467.98 600.518 471.265 621.596 474.658 642.657L436.722 653.16C421.595 656.768 403.835 662.184 388.586 666.409C381.998 654.354 368.679 643.836 359.162 633.146C352.289 633.008 345.015 632.743 338.202 631.853L363.871 534.771Z"/><path fill="#8F707F" transform="scale(0.5 0.5)" d="M335.329 642.277C341.312 643.694 349.427 643.959 355.677 644.293C361.284 650.094 374.441 662.811 378.168 668.868C371.933 671.167 364.093 673.299 357.623 675.199C346.626 678.411 335.571 681.418 324.462 684.22C326.581 672.947 332.264 653.917 335.329 642.277Z"/></svg>