<?xml version="1.0" encoding="UTF-8"?>
<svg width="24px" height="24px" viewBox="0 0 24 24" version="1.1" xmlns="http://www.w3.org/2000/svg" xmlns:xlink="http://www.w3.org/1999/xlink">
    <title>AIP Assist Tutorials</title>
    <metadata>{"backgroundColor": "#a98fed" }</metadata>
    <defs>
        <linearGradient x1="50%" y1="0%" x2="50%" y2="100%" id="linearGradient-1">
            <stop stop-color="#ffffff" stop-opacity="0.2" offset="0%"></stop>
            <stop stop-color="#ffffff" stop-opacity="0" offset="100%"></stop>
        </linearGradient>
        <path d="M 23.7 8 L 12.2 3 C 12.1 3 11.9 3 11.8 3 L 0.3 8.1 C 0.1 8.1 0 8.3 0 8.5 C 0 8.7 0.1 8.9 0.3 9 L 1.3 9.4 L 1 16.5 C 0.4 17 0 17.7 0 18.5 C 0 19.9 1.1 21 2.5 21 C 3.9 21 5 19.9 5 18.5 C 5 17.7 4.6 17 4 16.5 L 3.7 10.4 L 5 11 L 5 17.4 C 5 17.7 5.1 17.9 5.3 18 C 6.2 18.6 8.6 20 12 20 C 15.4 20 17.8 18.6 18.7 18 C 18.9 17.9 19 17.7 19 17.4 L 19 11 L 23.7 8.9 C 23.9 8.8 24 8.7 24 8.5 C 24 8.3 23.9 8.1 23.7 8" id="path-2"></path>
        <linearGradient x1="0%" y1="21.7600246%" x2="99.8522506%" y2="78.1565266%" id="linearGradient-3">
            <stop stop-color="#ffffff" offset="0%"></stop>
            <stop stop-color="#000000" offset="99.926098%"></stop>
        </linearGradient>
    </defs>
    <g id="Icons" stroke="none" stroke-width="1" fill="none" fill-rule="evenodd">
        <g transform="translate(-48,-9368)" id="Academic-Organization">
            <g transform="translate(47,56)">
                <g transform="translate(1,9312)">
                    <g id="Light" transform="translate(0,0)">
                        <g id="academic-organization-24" transform="matrix(1,0,0,1,0,0)">
                            <g id="fill">
                                <use transform="matrix(1,0,0,1,0,0)" fill="#845cea" xlink:href="#path-2"></use>
                                <use transform="matrix(1,0,0,1,0,0)" fill="url(#linearGradient-1)" xlink:href="#path-2"></use>
                            </g>
                            <path d="M 12 12.9 L 1.8 8.5 L 12 4 L 22.2 8.5 L 12 12.9 Z M 18 17.3 C 17.1 17.9 14.9 19 12 19 C 9.1 19 6.9 17.9 6 17.3 L 6 11.4 L 11.8 14 C 11.9 14 11.9 14 12 14 C 12.1 14 12.1 14 12.2 14 L 18 11.4 L 18 17.3 Z M 3 16 C 2.8 16 2.7 16 2.5 16 C 2.3 16 2.2 16 2 16 L 2.3 9.8 L 2.7 10 L 3 16 Z M 2.5 20 C 1.7 20 1 19.3 1 18.5 C 1 17.7 1.7 17 2.5 17 C 3.3 17 4 17.7 4 18.5 C 4 19.3 3.3 20 2.5 20 L 2.5 20 Z M 23.7 8 L 12.2 3 C 12.1 3 11.9 3 11.8 3 L 0.3 8.1 C 0.1 8.1 0 8.3 0 8.5 C 0 8.7 0.1 8.9 0.3 9 L 1.3 9.4 L 1 16.5 C 0.4 17 0 17.7 0 18.5 C 0 19.9 1.1 21 2.5 21 C 3.9 21 5 19.9 5 18.5 C 5 17.7 4.6 17 4 16.5 L 3.7 10.4 L 5 11 L 5 17.4 C 5 17.7 5.1 17.9 5.3 18 C 6.2 18.6 8.6 20 12 20 C 15.4 20 17.8 18.6 18.7 18 C 18.9 17.9 19 17.7 19 17.4 L 19 11 L 23.7 8.9 C 23.9 8.8 24 8.7 24 8.5 C 24 8.3 23.9 8.1 23.7 8 L 23.7 8 Z" id="stroke" fill="#000000" opacity="0.600000024"></path>
                            <path d="M 23.7 8 L 12.2 3 C 12.1 3 11.9 3 11.8 3 L 0.3 8.1 C 0.1 8.1 0 8.3 0 8.5 C 0 8.7 0.1 8.9 0.3 9 L 1.3 9.4 L 1 16.5 C 0.4 17 0 17.7 0 18.5 C 0 19.9 1.1 21 2.5 21 C 3.9 21 5 19.9 5 18.5 C 5 17.7 4.6 17 4 16.5 L 3.7 10.4 L 5 11 L 5 17.4 C 5 17.7 5.1 17.9 5.3 18 C 6.2 18.6 8.6 20 12 20 C 15.4 20 17.8 18.6 18.7 18 C 18.9 17.9 19 17.7 19 17.4 L 19 11 L 23.7 8.9 C 23.9 8.8 24 8.7 24 8.5 C 24 8.3 23.9 8.1 23.7 8" id="gradient" fill="url(#linearGradient-3)" opacity="0.08"></path>
                        </g>
                    </g>
                </g>
            </g>
        </g>
    </g>
</svg>
