<svg width="24" height="24" viewBox="0 0 24 24" fill="none" xmlns="http://www.w3.org/2000/svg">
    <title>approvals-app</title>
    <metadata>{"backgroundColor":"#669EFF"}</metadata>
    <g id="approvals-app">
        <g id="Rectangle 1">
            <rect width="24" height="24" rx="1" fill="#4580E6" />
            <rect x="0.5" y="0.5" width="23" height="23" rx="0.5" stroke="black" stroke-opacity="0.15" />
        </g>
        <g id="path">
            <path fill-rule="evenodd" clip-rule="evenodd" d="M16.8 8C16.464 8 16.164 8.12571 15.948 8.33143L10.8 13.2457L8.052 10.6171C7.836 10.4114 7.536 10.2857 7.2 10.2857C6.54 10.2857 6 10.8 6 11.4286C6 11.7486 6.132 12.0343 6.348 12.24L9.948 15.6686C10.164 15.8743 10.464 16 10.8 16C11.136 16 11.436 15.8743 11.652 15.6686L17.652 9.95429C17.868 9.74857 18 9.46286 18 9.14286C18 8.51429 17.46 8 16.8 8Z" fill="white" />
            <path d="M15.6032 7.96936L15.6028 7.96976L10.8004 12.5541L8.39762 10.2558L8.39683 10.2551C8.08644 9.95946 7.66241 9.78571 7.2 9.78571C6.28713 9.78571 5.5 10.5011 5.5 11.4286C5.5 11.8908 5.69207 12.3058 6.00317 12.6021L9.60317 16.0306C9.91356 16.3263 10.3376 16.5 10.8 16.5C11.2624 16.5 11.6864 16.3263 11.9968 16.0306L17.9968 10.3164C18.3079 10.0201 18.5 9.6051 18.5 9.14286C18.5 8.21544 17.7129 7.5 16.8 7.5C16.3376 7.5 15.9136 7.67375 15.6032 7.96936Z" stroke="black" stroke-opacity="0.15" />
        </g>
    </g>
</svg>
