<?xml version="1.0" encoding="UTF-8"?>
<svg width="24px" height="24px" viewBox="0 0 24 24" version="1.1" xmlns="http://www.w3.org/2000/svg" xmlns:xlink="http://www.w3.org/1999/xlink">
    <title>arrow-app</title>
    <metadata>{"backgroundColor":"#48aff0"}</metadata>
    <defs></defs>
    <g id="Page-1" stroke="none" stroke-width="1" fill="none" fill-rule="evenodd">
        <g id="arrow-app" fill="#2B95D6" fill-rule="nonzero">
            <g id="Shapes" transform="translate(2.000000, 2.000000)">
                <path d="M11.4285714,10 C11.4285714,9.6 11.2714286,9.24285713 11.0142857,8.9857143 L2.44285714,0.414285713 C2.18571429,0.157142857 1.82857143,0 1.42857143,0 C0.642857143,0 0,0.642857143 0,1.42857143 C0,1.82857143 0.157142857,2.18571429 0.414285713,2.44285714 L7.9857143,10 L0.42857143,17.5571429 C0.157142857,17.8142857 0,18.1714286 0,18.5714286 C0,19.3571429 0.642857143,20 1.42857143,20 C1.82857143,20 2.18571429,19.8428571 2.44285714,19.5857143 L11.0142857,11.0142857 C11.2714286,10.7571429 11.4285714,10.4 11.4285714,10 Z M19.5857143,8.9857143 L11.0142857,0.414285713 C10.7571429,0.157142857 10.4,0 10,0 C9.2142857,0 8.57142857,0.642857143 8.57142857,1.42857143 C8.57142857,1.82857143 8.72857143,2.18571429 8.9857143,2.44285714 L16.5571429,10 L9,17.5571429 C8.72857143,17.8142857 8.57142857,18.1714286 8.57142857,18.5714286 C8.57142857,19.3571429 9.2142857,20 10,20 C10.4,20 10.7571429,19.8428571 11.0142857,19.5857143 L19.5857143,11.0142857 C19.8428571,10.7571429 20,10.4 20,10 C20,9.6 19.8428571,9.24285713 19.5857143,8.9857143 Z" id="Shape"></path>
            </g>
        </g>
    </g>
</svg>