<?xml version="1.0" encoding="UTF-8"?>
<svg width="24" height="24" viewBox="0 0 24 24" fill="none" xmlns="http://www.w3.org/2000/svg">
    <title>artifacts-app</title>
    <metadata>{"backgroundColor":"#eae0ea"}</metadata>
    <path fill-rule="evenodd" clip-rule="evenodd" d="M10 3C10 1.34315 11.3431 0 13 0C14.6569 0 16 1.34315 16 3V4H23V10H22C20.3431 10 19 11.3431 19 13C19 14.6569 20.3431 16 22 16H23V23H16V22C16 20.3431 14.6569 19 13 19C11.3431 19 10 20.3431 10 22V23H4V16H3C1.34315 16 0 14.6569 0 13C0 11.3431 1.34315 10 3 10H4V4H10V3Z" fill="#8C548C"/>
    <path fill-rule="evenodd" clip-rule="evenodd" d="M15 5V3C15 1.89543 14.1046 1 13 1C11.8954 1 11 1.89543 11 3V5H5V11H3C1.89543 11 1 11.8954 1 13C1 14.1046 1.89543 15 3 15H5V22H9C9 19.7909 10.7909 18 13 18C15.2091 18 17 19.7909 17 22H22V17C19.7909 17 18 15.2091 18 13C18 10.7909 19.7909 9 22 9V5H15ZM23 4V10H22C20.3431 10 19 11.3431 19 13C19 14.6569 20.3431 16 22 16H23V23H16V22C16 20.3431 14.6569 19 13 19C11.3431 19 10 20.3431 10 22V23H4V16H3C1.34315 16 0 14.6569 0 13C0 11.3431 1.34315 10 3 10H4V4H10V3C10 1.34315 11.3431 0 13 0C14.6569 0 16 1.34315 16 3V4H23Z" fill="black" fill-opacity="0.1"/>
</svg>
