<?xml version="1.0" encoding="UTF-8"?>
<svg width="24px" height="24px" viewBox="0 0 24 24" version="1.1" xmlns="http://www.w3.org/2000/svg" xmlns:xlink="http://www.w3.org/1999/xlink">
    <title>cipher-channel-app</title>
    <metadata>{"backgroundColor":"#a7b6c2"}</metadata>
    <g transform="translate(4.000000, 4.000000)" stroke="none" stroke-width="1" fill="none" fill-rule="evenodd">
        <path d="M13.96,7 L12,7 L12,3.95 C12,1.77 10.21,0 8,0 C5.79,0 4,1.77 4,3.95 L4,7 L1.96,7 C1.41,7 1,7.35 1,7.9 L1,14.81 C1,15.35 1.41,16 1.96,16 L13.96,16 C14.51,16 15,15.35 15,14.81 L15,7.9 C15,7.35 14.51,7 13.96,7 Z M6,7 L6,3.95 C6,2.86 6.9,1.98 8,1.98 C9.1,1.98 10,2.86 10,3.95 L10,7 L6,7 Z" fill="#8A9BA8"></path>
    </g>
</svg>
