<?xml version="1.0" encoding="UTF-8"?>
<svg width="24px" height="24px" viewBox="0 0 24 24" version="1.1" xmlns="http://www.w3.org/2000/svg" xmlns:xlink="http://www.w3.org/1999/xlink">
    <title>code-app</title>
    <metadata>{"backgroundColor":"#a7b6c2"}</metadata>
    <defs>
        <linearGradient x1="77.9642857%" y1="114.841667%" x2="19.4214286%" y2="-3.45833333%" id="linearGradient-1">
            <stop stop-color="#E1E8ED" offset="0%"></stop>
            <stop stop-color="#EAF0F3" offset="56.8%"></stop>
            <stop stop-color="#F5F8FA" offset="100%"></stop>
        </linearGradient>
    </defs>
    <g id="Page-1" stroke="none" stroke-width="1" fill="none" fill-rule="evenodd">
        <g id="code-app">
            <g id="Shapes" transform="translate(0.000000, 2.000000)">
                <rect id="Rectangle-path-Copy" stroke="#BFCCD6" x="0.5" y="2.5" width="23" height="17"></rect>
                <polygon id="Shape" fill="url(#linearGradient-1)" fill-rule="nonzero" points="20 3 20 -8.8817842e-16 14 -8.8817842e-16 14 3 10 3 10 -8.8817842e-16 3 -8.8817842e-16 3 3 1 3 1 19 23 19 23 3"></polygon>
                <path d="M5,10.612 L10.6,7 L10.6,8.54 L6.428,11.172 L6.428,11.228 L10.6,13.86 L10.6,15.4 L5,11.788 L5,10.612 Z M19,11.788 L13.4,15.4 L13.4,13.86 L17.572,11.228 L17.572,11.172 L13.4,8.54 L13.4,7 L19,10.612 L19,11.788 Z" id="Shape" fill="#5C7080" fill-rule="nonzero"></path>
                <path d="M3,0 L10,0 L10,3 L3,3 L3,0 Z M13,0 L20,0 L20,3 L13,3 L13,0 Z" id="Shape" fill="#BFCCD6" fill-rule="nonzero"></path>
                <path d="M3,2 L10,2 L10,3 L3,3 L3,2 Z M13,2 L20,2 L20,3 L13,3 L13,2 Z" id="Shape" fill="#A7B6C2" fill-rule="nonzero"></path>
            </g>
        </g>
    </g>
</svg>