<svg width="25" height="24" viewBox="0 0 25 24" fill="none" xmlns="http://www.w3.org/2000/svg">
<title>Control Panel</title>
<metadata>{"backgroundColor": "#F6F8F9" }</metadata>
<path fill-rule="evenodd" clip-rule="evenodd" d="M1 5H21V19H12V22H15V23H7V22H10V19H1V5Z" fill="white"/>
<path fill-rule="evenodd" clip-rule="evenodd" d="M21 4C21.5523 4 22 4.44772 22 5V19C22 19.5523 21.5523 20 21 20H13V21H15C15.5523 21 16 21.4477 16 22V23C16 23.5523 15.5523 24 15 24H7C6.44771 24 6 23.5523 6 23V22C6 21.4477 6.44771 21 7 21H9V20H1C0.447715 20 0 19.5523 0 19V5C0 4.44772 0.447716 4 1 4H21ZM10 19V22H7V23H15V22H12V19H21V5H1V19H10Z" fill="#8F99A8"/>
<path d="M1.76257 5.53958H20.2376V18.3694H1.76257V5.53958Z" fill="#2D72D2" fill-opacity="0.15"/>
<path d="M2.01917 5.79618H19.981V18.1128H2.01917V5.79618Z" stroke="#2D72D2" stroke-opacity="0.2" stroke-width="0.513194"/>
<path d="M10.0001 19H12.0001V20H10.0001V19Z" fill="#1C2127" fill-opacity="0.2"/>
<mask id="path-6-outside-1_190_624" maskUnits="userSpaceOnUse" x="11" y="0" width="15" height="14" fill="black">
<rect fill="white" x="11" width="15" height="14"/>
<path fill-rule="evenodd" clip-rule="evenodd" d="M23.4 5.8H22.0125C21.93 5.5225 21.81 5.2675 21.675 5.02L22.695 4C22.9275 3.7675 22.9275 3.385 22.695 3.1525L21.8475 2.305C21.615 2.0725 21.2325 2.0725 21 2.305L19.98 3.325C19.7325 3.1975 19.4775 3.0775 19.2 2.995V1.6C19.2 1.27 18.93 1 18.6 1H17.4C17.07 1 16.8 1.27 16.8 1.6V2.995C16.5075 3.085 16.2375 3.205 15.975 3.3475L15 2.3725C14.775 2.1475 14.4075 2.1475 14.1825 2.3725L13.3725 3.19C13.1475 3.415 13.1475 3.7825 13.3725 4.0075L14.3475 4.9825C14.1975 5.2375 14.0775 5.5075 13.9875 5.8H12.6C12.27 5.8 12 6.07 12 6.4V7.6C12 7.93 12.27 8.2 12.6 8.2H13.9875C14.07 8.4775 14.19 8.7325 14.325 8.98L13.305 10C13.0725 10.2325 13.0725 10.615 13.305 10.8475L14.1525 11.695C14.385 11.9275 14.7675 11.9275 15 11.695L16.02 10.675C16.2675 10.81 16.5225 10.9225 16.8 11.005V12.4C16.8 12.73 17.07 13 17.4 13H18.6C18.93 13 19.2 12.73 19.2 12.4V11.005C19.4925 10.915 19.7625 10.795 20.025 10.6525L21 11.6275C21.225 11.8525 21.5925 11.8525 21.8175 11.6275L22.635 10.81C22.86 10.585 22.86 10.2175 22.635 9.9925L21.66 9.0175C21.8025 8.755 21.93 8.485 22.02 8.1925H23.4075C23.7375 8.1925 24.0075 7.9225 24.0075 7.5925V6.3925C24 6.07 23.73 5.8 23.4 5.8ZM18 9.24998C16.755 9.24998 15.75 8.24498 15.75 6.99998C15.75 5.75498 16.755 4.74998 18 4.74998C19.245 4.74998 20.25 5.75498 20.25 6.99998C20.25 8.24498 19.245 9.24998 18 9.24998Z"/>
</mask>
<path fill-rule="evenodd" clip-rule="evenodd" d="M23.4 5.8H22.0125C21.93 5.5225 21.81 5.2675 21.675 5.02L22.695 4C22.9275 3.7675 22.9275 3.385 22.695 3.1525L21.8475 2.305C21.615 2.0725 21.2325 2.0725 21 2.305L19.98 3.325C19.7325 3.1975 19.4775 3.0775 19.2 2.995V1.6C19.2 1.27 18.93 1 18.6 1H17.4C17.07 1 16.8 1.27 16.8 1.6V2.995C16.5075 3.085 16.2375 3.205 15.975 3.3475L15 2.3725C14.775 2.1475 14.4075 2.1475 14.1825 2.3725L13.3725 3.19C13.1475 3.415 13.1475 3.7825 13.3725 4.0075L14.3475 4.9825C14.1975 5.2375 14.0775 5.5075 13.9875 5.8H12.6C12.27 5.8 12 6.07 12 6.4V7.6C12 7.93 12.27 8.2 12.6 8.2H13.9875C14.07 8.4775 14.19 8.7325 14.325 8.98L13.305 10C13.0725 10.2325 13.0725 10.615 13.305 10.8475L14.1525 11.695C14.385 11.9275 14.7675 11.9275 15 11.695L16.02 10.675C16.2675 10.81 16.5225 10.9225 16.8 11.005V12.4C16.8 12.73 17.07 13 17.4 13H18.6C18.93 13 19.2 12.73 19.2 12.4V11.005C19.4925 10.915 19.7625 10.795 20.025 10.6525L21 11.6275C21.225 11.8525 21.5925 11.8525 21.8175 11.6275L22.635 10.81C22.86 10.585 22.86 10.2175 22.635 9.9925L21.66 9.0175C21.8025 8.755 21.93 8.485 22.02 8.1925H23.4075C23.7375 8.1925 24.0075 7.9225 24.0075 7.5925V6.3925C24 6.07 23.73 5.8 23.4 5.8ZM18 9.24998C16.755 9.24998 15.75 8.24498 15.75 6.99998C15.75 5.75498 16.755 4.74998 18 4.74998C19.245 4.74998 20.25 5.75498 20.25 6.99998C20.25 8.24498 19.245 9.24998 18 9.24998Z" fill="#2D72D2"/>
<path d="M22.0125 5.8L21.054 6.08497L21.2665 6.8H22.0125V5.8ZM21.675 5.02L20.9679 4.31289L20.4388 4.84198L20.7971 5.49885L21.675 5.02ZM22.695 4L21.9879 3.29289V3.29289L22.695 4ZM22.695 3.1525L23.4021 2.44539L22.695 3.1525ZM21.8475 2.305L21.1404 3.01211L21.8475 2.305ZM21 2.305L21.7071 3.01211L21 2.305ZM19.98 3.325L19.522 4.21397L20.171 4.54826L20.6871 4.03211L19.98 3.325ZM19.2 2.995H18.2V3.74096L18.915 3.95354L19.2 2.995ZM16.8 2.995L17.0941 3.95078L17.8 3.73357V2.995H16.8ZM15.975 3.3475L15.2679 4.05461L15.7959 4.58259L16.4521 4.22635L15.975 3.3475ZM15 2.3725L15.7071 1.66539L15.7071 1.66539L15 2.3725ZM14.1825 2.3725L13.4754 1.66539L13.4721 1.66866L14.1825 2.3725ZM13.3725 3.19L14.0796 3.89711L14.0829 3.89384L13.3725 3.19ZM13.3725 4.0075L12.6654 4.71461L13.3725 4.0075ZM14.3475 4.9825L15.2094 5.48952L15.6018 4.82255L15.0546 4.27539L14.3475 4.9825ZM13.9875 5.8V6.8H14.7261L14.9433 6.09409L13.9875 5.8ZM13.9875 8.2L14.946 7.91503L14.7335 7.2H13.9875V8.2ZM14.325 8.98L15.0321 9.68711L15.5612 9.15802L15.2029 8.50115L14.325 8.98ZM13.305 10L14.0121 10.7071L13.305 10ZM13.305 10.8475L14.0121 10.1404L13.305 10.8475ZM14.1525 11.695L13.4454 12.4021L14.1525 11.695ZM15 11.695L14.2929 10.9879H14.2929L15 11.695ZM16.02 10.675L16.4989 9.7971L15.842 9.43881L15.3129 9.96789L16.02 10.675ZM16.8 11.005H17.8V10.259L17.085 10.0465L16.8 11.005ZM19.2 11.005L18.9059 10.0492L18.2 10.2664V11.005H19.2ZM20.025 10.6525L20.7321 9.94539L20.2041 9.41741L19.5479 9.77365L20.025 10.6525ZM21 11.6275L21.7071 10.9204L21 11.6275ZM21.8175 11.6275L22.5246 12.3346H22.5246L21.8175 11.6275ZM22.635 10.81L21.9279 10.1029L22.635 10.81ZM22.635 9.9925L23.3421 9.28539L22.635 9.9925ZM21.66 9.0175L20.7811 8.54041L20.4249 9.19663L20.9529 9.72461L21.66 9.0175ZM22.02 8.1925V7.1925H21.2814L21.0642 7.89841L22.02 8.1925ZM24.0075 6.3925H25.0075V6.38087L25.0072 6.36925L24.0075 6.3925ZM23.4 4.8H22.0125V6.8H23.4V4.8ZM22.971 5.51503C22.861 5.14488 22.7059 4.82161 22.5529 4.54115L20.7971 5.49885C20.9141 5.71339 20.999 5.90012 21.054 6.08497L22.971 5.51503ZM22.3821 5.72711L23.4021 4.70711L21.9879 3.29289L20.9679 4.31289L22.3821 5.72711ZM23.4021 4.70711C24.0251 4.08408 24.0251 3.06842 23.4021 2.44539L21.9879 3.85961C21.8299 3.70158 21.8299 3.45092 21.9879 3.29289L23.4021 4.70711ZM23.4021 2.44539L22.5546 1.59789L21.1404 3.01211L21.9879 3.85961L23.4021 2.44539ZM22.5546 1.59789C21.9316 0.974869 20.9159 0.974869 20.2929 1.59789L21.7071 3.01211C21.5491 3.17013 21.2984 3.17013 21.1404 3.01211L22.5546 1.59789ZM20.2929 1.59789L19.2729 2.61789L20.6871 4.03211L21.7071 3.01211L20.2929 1.59789ZM20.438 2.43603C20.1731 2.29957 19.8525 2.14574 19.485 2.03646L18.915 3.95354C19.1025 4.00926 19.2919 4.09543 19.522 4.21397L20.438 2.43603ZM20.2 2.995V1.6H18.2V2.995H20.2ZM20.2 1.6C20.2 0.717715 19.4823 5.96046e-08 18.6 5.96046e-08V2C18.3777 2 18.2 1.82228 18.2 1.6H20.2ZM18.6 5.96046e-08H17.4V2H18.6V5.96046e-08ZM17.4 5.96046e-08C16.5177 5.96046e-08 15.8 0.717715 15.8 1.6H17.8C17.8 1.82228 17.6223 2 17.4 2V5.96046e-08ZM15.8 1.6V2.995H17.8V1.6H15.8ZM16.5059 2.03922C16.1385 2.15228 15.8071 2.30082 15.4979 2.46865L16.4521 4.22635C16.6679 4.10918 16.8765 4.01772 17.0941 3.95078L16.5059 2.03922ZM16.6821 2.64039L15.7071 1.66539L14.2929 3.07961L15.2679 4.05461L16.6821 2.64039ZM15.7071 1.66539C15.0916 1.04987 14.0909 1.04987 13.4754 1.66539L14.8896 3.07961C14.7241 3.24513 14.4584 3.24513 14.2929 3.07961L15.7071 1.66539ZM13.4721 1.66866L12.6621 2.48616L14.0829 3.89384L14.8929 3.07634L13.4721 1.66866ZM12.6654 2.48289C12.0499 3.09842 12.0499 4.09908 12.6654 4.71461L14.0796 3.30039C14.2451 3.46592 14.2451 3.73158 14.0796 3.89711L12.6654 2.48289ZM12.6654 4.71461L13.6404 5.68961L15.0546 4.27539L14.0796 3.30039L12.6654 4.71461ZM13.4856 4.47548C13.2965 4.79693 13.1448 5.13832 13.0317 5.50591L14.9433 6.09409C15.0102 5.87668 15.0985 5.67807 15.2094 5.48952L13.4856 4.47548ZM13.9875 4.8H12.6V6.8H13.9875V4.8ZM12.6 4.8C11.7177 4.8 11 5.51771 11 6.4H13C13 6.62228 12.8223 6.8 12.6 6.8V4.8ZM11 6.4V7.6H13V6.4H11ZM11 7.6C11 8.48228 11.7177 9.2 12.6 9.2V7.2C12.8223 7.2 13 7.37771 13 7.6H11ZM12.6 9.2H13.9875V7.2H12.6V9.2ZM13.029 8.48497C13.139 8.85512 13.2941 9.17839 13.4471 9.45885L15.2029 8.50115C15.0859 8.28661 15.001 8.09988 14.946 7.91503L13.029 8.48497ZM13.6179 8.27289L12.5979 9.29289L14.0121 10.7071L15.0321 9.68711L13.6179 8.27289ZM12.5979 9.29289C11.9749 9.91592 11.9749 10.9316 12.5979 11.5546L14.0121 10.1404C14.1701 10.2984 14.1701 10.5491 14.0121 10.7071L12.5979 9.29289ZM12.5979 11.5546L13.4454 12.4021L14.8596 10.9879L14.0121 10.1404L12.5979 11.5546ZM13.4454 12.4021C14.0684 13.0251 15.0841 13.0251 15.7071 12.4021L14.2929 10.9879C14.4509 10.8299 14.7016 10.8299 14.8596 10.9879L13.4454 12.4021ZM15.7071 12.4021L16.7271 11.3821L15.3129 9.96789L14.2929 10.9879L15.7071 12.4021ZM15.5411 11.5529C15.8381 11.7149 16.1582 11.8574 16.515 11.9635L17.085 10.0465C16.8868 9.98755 16.6969 9.90512 16.4989 9.7971L15.5411 11.5529ZM15.8 11.005V12.4H17.8V11.005H15.8ZM15.8 12.4C15.8 13.2823 16.5177 14 17.4 14V12C17.6223 12 17.8 12.1777 17.8 12.4H15.8ZM17.4 14H18.6V12H17.4V14ZM18.6 14C19.4823 14 20.2 13.2823 20.2 12.4H18.2C18.2 12.1777 18.3777 12 18.6 12V14ZM20.2 12.4V11.005H18.2V12.4H20.2ZM19.4941 11.9608C19.8615 11.8477 20.1929 11.6992 20.5021 11.5314L19.5479 9.77365C19.3321 9.89082 19.1235 9.98228 18.9059 10.0492L19.4941 11.9608ZM19.3179 11.3596L20.2929 12.3346L21.7071 10.9204L20.7321 9.94539L19.3179 11.3596ZM20.2929 12.3346C20.9084 12.9501 21.9091 12.9501 22.5246 12.3346L21.1104 10.9204C21.2759 10.7549 21.5416 10.7549 21.7071 10.9204L20.2929 12.3346ZM22.5246 12.3346L23.3421 11.5171L21.9279 10.1029L21.1104 10.9204L22.5246 12.3346ZM23.3421 11.5171C23.9576 10.9016 23.9576 9.90092 23.3421 9.28539L21.9279 10.6996C21.7624 10.5341 21.7624 10.2684 21.9279 10.1029L23.3421 11.5171ZM23.3421 9.28539L22.3671 8.31039L20.9529 9.72461L21.9279 10.6996L23.3421 9.28539ZM22.5389 9.49459C22.6982 9.20104 22.8589 8.86649 22.9758 8.48659L21.0642 7.89841C21.0011 8.10351 20.9068 8.30896 20.7811 8.54041L22.5389 9.49459ZM22.02 9.1925H23.4075V7.1925H22.02V9.1925ZM23.4075 9.1925C24.2898 9.1925 25.0075 8.47478 25.0075 7.5925H23.0075C23.0075 7.37021 23.1852 7.1925 23.4075 7.1925V9.1925ZM25.0075 7.5925V6.3925H23.0075V7.5925H25.0075ZM25.0072 6.36925C24.9872 5.50928 24.2788 4.8 23.4 4.8V6.8C23.1812 6.8 23.0128 6.63072 23.0078 6.41575L25.0072 6.36925ZM18 8.24998C17.3073 8.24998 16.75 7.6927 16.75 6.99998H14.75C14.75 8.79727 16.2027 10.25 18 10.25V8.24998ZM16.75 6.99998C16.75 6.30727 17.3073 5.74998 18 5.74998V3.74998C16.2027 3.74998 14.75 5.2027 14.75 6.99998H16.75ZM18 5.74998C18.6927 5.74998 19.25 6.30727 19.25 6.99998H21.25C21.25 5.2027 19.7973 3.74998 18 3.74998V5.74998ZM19.25 6.99998C19.25 7.6927 18.6927 8.24998 18 8.24998V10.25C19.7973 10.25 21.25 8.79727 21.25 6.99998H19.25Z" fill="#FAFBFC" mask="url(#path-6-outside-1_190_624)"/>
</svg>
