<svg width="24" height="24" viewBox="0 0 24 24" fill="none" xmlns="http://www.w3.org/2000/svg">
<title>custom-widgets-app</title>
<metadata>{"backgroundColor":"#9881F3"}</metadata>
<g opacity="0.8">
<path d="M10 23C10 23.5523 10.4477 24 11 24H15C16.6569 24 18 22.6569 18 21V17C18 16.4477 17.5523 16 17 16H12C10.8954 16 10 16.8954 10 18V23Z" fill="white"/>
<path d="M11 23.5H15C16.3807 23.5 17.5 22.3807 17.5 21V17C17.5 16.7239 17.2761 16.5 17 16.5H12C11.1716 16.5 10.5 17.1716 10.5 18V23C10.5 23.2761 10.7239 23.5 11 23.5Z" stroke="#1C2127" stroke-opacity="0.4"/>
</g>
<g opacity="0.8">
<path d="M8 7C8 6.44772 7.55228 6 7 6H3C1.34315 6 0 7.34315 0 9V13C0 13.5523 0.447715 14 1 14H6C7.10457 14 8 13.1046 8 12V7Z" fill="white"/>
<path d="M7 6.5H3C1.61929 6.5 0.5 7.61929 0.5 9V13C0.5 13.2761 0.723858 13.5 1 13.5H6C6.82843 13.5 7.5 12.8284 7.5 12V7C7.5 6.72386 7.27614 6.5 7 6.5Z" stroke="#1C2127" stroke-opacity="0.4"/>
</g>
<path d="M8 23.5H3C1.61929 23.5 0.5 22.3807 0.5 21V16C0.5 15.7239 0.723858 15.5 1 15.5H8.5V23C8.5 23.2761 8.27614 23.5 8 23.5Z" fill="#7050F0" fill-opacity="0.7" stroke="#9881F3"/>
<path fill-rule="evenodd" clip-rule="evenodd" d="M9 11L11 13L13 15H12C10.3431 15 9 16.3431 9 18V19L7 17L5 15H6C7.65685 15 9 13.6569 9 12V11Z" fill="url(#paint0_linear_251_126)"/>
<path d="M7 16H1V21C1 22.1046 1.89543 23 3 23H8V17C8 16.4477 7.55228 16 7 16Z" fill="white" fill-opacity="0.7"/>
<path d="M12 0.5H21C22.3807 0.5 23.5 1.61929 23.5 3V12C23.5 13.3807 22.3807 14.5 21 14.5H11C10.1716 14.5 9.5 13.8284 9.5 13V3C9.5 1.61929 10.6193 0.5 12 0.5Z" fill="#9F88F8"/>
<path d="M12 0.5H21C22.3807 0.5 23.5 1.61929 23.5 3V12C23.5 13.3807 22.3807 14.5 21 14.5H11C10.1716 14.5 9.5 13.8284 9.5 13V3C9.5 1.61929 10.6193 0.5 12 0.5Z" stroke="#7050F0"/>
<path fill-rule="evenodd" clip-rule="evenodd" d="M15.71 10.29C15.89 10.47 16 10.72 16 11C16 11.55 15.55 12 15 12C14.72 12 14.47 11.89 14.29 11.71L11.29 8.71C11.11 8.53 11 8.28 11 8C11 7.72 11.11 7.47 11.29 7.29L14.29 4.29C14.47 4.11 14.72 4 15 4C15.55 4 16 4.45 16 5C16 5.28 15.89 5.53 15.71 5.71L13.41 8L15.71 10.29Z" fill="white"/>
<path fill-rule="evenodd" clip-rule="evenodd" d="M21.71 8.71L18.71 11.71C18.53 11.89 18.28 12 18 12C17.45 12 17 11.55 17 11C17 10.72 17.11 10.47 17.29 10.29L19.59 8L17.29 5.71C17.11 5.53 17 5.28 17 5C17 4.45 17.45 4 18 4C18.28 4 18.53 4.11 18.71 4.29L21.71 7.29C21.89 7.47 22 7.72 22 8C22 8.28 21.89 8.53 21.71 8.71V8.71Z" fill="white"/>
<defs>
<linearGradient id="paint0_linear_251_126" x1="9.5" y1="14.5" x2="7.5" y2="16.5" gradientUnits="userSpaceOnUse">
<stop stop-color="#7050F0"/>
<stop offset="1" stop-color="#9881F3"/>
</linearGradient>
</defs>
</svg>
