<?xml version="1.0" encoding="UTF-8"?>
<svg width="24px" height="24px" viewBox="0 0 24 24" version="1.1" xmlns="http://www.w3.org/2000/svg" xmlns:xlink="http://www.w3.org/1999/xlink">
    <title>data-connection-app</title>
    <metadata>{"backgroundColor":"#ffb266"}</metadata>
    <path fill="#F29D49" fill-rule="evenodd" clip-rule="evenodd" d="M12 6C16.965 6 21 4.65 21 3C21 1.35 16.965 0 12 0C7.02 0 3 1.35 3 3C3 4.65 7.02 6 12 6ZM3 5.28V12C3 13.65 7.035 15 12 15C16.965 15 21 13.65 21 12V5.28C19.17 6.6 15.84 7.5 12 7.5C8.16 7.5 4.83 6.6 3 5.28ZM3 14.28V21C3 22.65 7.035 24 12 24C16.965 24 21 22.65 21 21V14.28C19.17 15.6 15.84 16.5 12 16.5C8.16 16.5 4.83 15.6 3 14.28Z"/>
    <path fill="none" stroke="black" stroke-opacity="0.1" d="M20.5 3C20.5 3.19278 20.3823 3.45759 19.9828 3.77186C19.5894 4.08135 18.9892 4.38228 18.2036 4.64446C16.6375 5.16708 14.4434 5.5 12 5.5C9.54897 5.5 7.35493 5.16705 5.79094 4.64452C5.00634 4.38238 4.40774 4.08154 4.01556 3.77225C3.61755 3.45835 3.5 3.1935 3.5 3C3.5 2.8065 3.61755 2.54165 4.01556 2.22775C4.40774 1.91846 5.00634 1.61762 5.79094 1.35548C7.35493 0.832952 9.54897 0.5 12 0.5C14.4434 0.5 16.6375 0.832916 18.2036 1.35554C18.9892 1.61772 19.5894 1.91865 19.9828 2.22814C20.3823 2.54241 20.5 2.80722 20.5 3ZM3.5 12V6.18491C5.51847 7.3024 8.58808 8 12 8C15.4119 8 18.4815 7.3024 20.5 6.18491V12C20.5 12.1928 20.3823 12.4576 19.9828 12.7719C19.5894 13.0813 18.9892 13.3823 18.2036 13.6445C16.6375 14.1671 14.4434 14.5 12 14.5C9.55661 14.5 7.36246 14.1671 5.7964 13.6445C5.01075 13.3823 4.41061 13.0813 4.01718 12.7719C3.61766 12.4576 3.5 12.1928 3.5 12ZM3.5 21V15.1849C5.51847 16.3024 8.58808 17 12 17C15.4119 17 18.4815 16.3024 20.5 15.1849V21C20.5 21.1928 20.3823 21.4576 19.9828 21.7719C19.5894 22.0813 18.9892 22.3823 18.2036 22.6445C16.6375 23.1671 14.4434 23.5 12 23.5C9.55661 23.5 7.36246 23.1671 5.7964 22.6445C5.01075 22.3823 4.41061 22.0813 4.01718 21.7719C3.61766 21.4576 3.5 21.1928 3.5 21Z"/>
</svg>
