<?xml version="1.0" encoding="UTF-8"?>
<svg width="24px" height="24px" viewBox="0 0 24 24" version="1.1" xmlns="http://www.w3.org/2000/svg" xmlns:xlink="http://www.w3.org/1999/xlink">
    <title>data-health-app</title>
    <metadata>{"backgroundColor":"#62d96b"}</metadata>
    <g id="data-health-app" stroke="none" stroke-width="1" fill="none">
        <path fill-rule="evenodd" clip-rule="evenodd" d="M22.5 12H20.31L17.76 8.175L17.73 8.19C17.46 7.785 17.025 7.5 16.5 7.5C15.855 7.5 15.315 7.905 15.105 8.475H15.09L12.555 15.24L10.485 2.76H10.455C10.335 2.055 9.75 1.5 9 1.5C8.385 1.5 7.845 1.875 7.62 2.415L3.51 12H1.5C0.675 12 0 12.675 0 13.5C0 14.325 0.675 15 1.5 15H4.5C5.115 15 5.655 14.625 5.88 14.085L8.355 8.295L10.515 21.24H10.545C10.665 21.945 11.25 22.5 12 22.5C12.645 22.5 13.185 22.095 13.395 21.525H13.41L16.875 12.27L18.255 14.34L18.285 14.325C18.54 14.715 18.975 15 19.5 15H22.5C23.325 15 24 14.325 24 13.5C24 12.675 23.325 12 22.5 12Z" fill="#15B371"/>
        <path d="M19.894 12.2774L20.0424 12.5H20.31H22.5C23.0489 12.5 23.5 12.9511 23.5 13.5C23.5 14.0489 23.0489 14.5 22.5 14.5H19.5C19.1666 14.5 18.8794 14.3204 18.7035 14.0514L18.4597 13.6786L18.4262 13.6954L17.291 11.9927L16.7492 11.1799L16.4067 12.0947L13.0633 21.025H13.0464L12.9258 21.3521C12.7852 21.7337 12.427 22 12 22C11.5161 22 11.1209 21.6435 11.0379 21.1561L10.9671 20.74H10.9385L8.84818 8.21271L8.56693 6.52714L7.89524 8.09847L5.42024 13.8885L5.42022 13.8885L5.41846 13.8927C5.26999 14.249 4.91028 14.5 4.5 14.5H1.5C0.951142 14.5 0.5 14.0489 0.5 13.5C0.5 12.9511 0.951142 12.5 1.5 12.5H3.51H3.83963L3.96954 12.197L8.07954 2.61205L8.07956 2.61206L8.08154 2.60731C8.23001 2.25096 8.58972 2 9 2C9.4839 2 9.87913 2.35651 9.96209 2.8439L10.0329 3.26H10.0611L12.0617 15.3218L12.3675 17.1653L13.0232 15.4154L15.4366 8.975H15.4536L15.5742 8.64785C15.7148 8.26626 16.073 8 16.5 8C16.8299 8 17.12 8.17646 17.314 8.46735L17.5588 8.83461L17.5888 8.81961L19.894 12.2774Z" stroke="black" stroke-opacity="0.15"/>
    </g>
</svg>
