<?xml version="1.0" encoding="UTF-8"?>
<svg width="24px" height="24px" viewBox="0 0 24 24" version="1.1" xmlns="http://www.w3.org/2000/svg" xmlns:xlink="http://www.w3.org/1999/xlink">
    <title>Artboard Copy 5</title>
    <metadata>{"backgroundColor":"#a7b6c2"}</metadata>
    <defs>
        <path d="M3.5,8 L12.5,8 C12.78,8 13,7.78 13,7.5 C13,7.22 12.78,7 12.5,7 L3.5,7 C3.22,7 3,7.22 3,7.5 C3,7.78 3.22,8 3.5,8 Z M3.5,10 L8.5,10 C8.78,10 9,9.78 9,9.5 C9,9.22 8.78,9 8.5,9 L3.5,9 C3.22,9 3,9.22 3,9.5 C3,9.78 3.22,10 3.5,10 Z M19,0 L1,0 C0.45,0 0,0.45 0,1 L0,17 C0,17.55 0.45,18 1,18 L19,18 C19.55,18 20,17.55 20,17 L20,1 C20,0.45 19.55,0 19,0 Z M18,16 L2,16 L2,5 L18,5 L18,16 Z M3.5,12 L10.5,12 C10.78,12 11,11.78 11,11.5 C11,11.22 10.78,11 10.5,11 L3.5,11 C3.22,11 3,11.22 3,11.5 C3,11.78 3.22,12 3.5,12 Z" id="path-1"></path>
    </defs>
    <g id="Page-1" stroke="none" stroke-width="1" fill="none" fill-rule="evenodd" opacity="0.800000012">
        <g id="Artboard-Copy-5" fill-rule="nonzero">
            <g id="default" transform="translate(2.000000, 3.000000)">
                <g id="Shape">
                    <use fill="#A7B6C2" fill-rule="evenodd" xlink:href="#path-1"></use>
                    <path stroke-opacity="0.2" stroke="#000000" stroke-width="1" d="M3.5,7.5 L12.5,7.5 C12.5038576,7.5 12.5,7.50385763 12.5,7.5 C12.5,7.49614237 12.5038576,7.5 12.5,7.5 L3.5,7.5 C3.49614237,7.5 3.5,7.49614237 3.5,7.5 C3.5,7.50385763 3.49614237,7.5 3.5,7.5 Z M8.50144661,9.50144661 C8.50096441,9.50192881 8.5,9.50192881 8.5,9.5 C8.5,9.49807119 8.50096441,9.49807119 8.50144661,9.49855339 Z M19,0.5 L1,0.5 C0.726142375,0.5 0.5,0.726142375 0.5,1 L0.5,17 C0.5,17.2738576 0.726142375,17.5 1,17.5 L19,17.5 C19.2738576,17.5 19.5,17.2738576 19.5,17 L19.5,1 C19.5,0.726142375 19.2738576,0.5 19,0.5 Z M18.5,16.5 L1.5,16.5 L1.5,4.5 L18.5,4.5 L18.5,16.5 Z M10.5014466,11.5014466 C10.5009644,11.5019288 10.5,11.5019288 10.5,11.5 C10.5,11.4980712 10.5009644,11.4980712 10.5014466,11.4985534 Z"></path>
                </g>
            </g>
        </g>
    </g>
</svg>