<svg width="24" height="24" viewBox="0 0 24 24" fill="none" xmlns="http://www.w3.org/2000/svg">
<metadata>{"backgroundColor":"#215db0"}</metadata>
<g clip-path="url(#clip0_1421_8012)">
<path fill-rule="evenodd" clip-rule="evenodd" d="M3.375 0C1.5075 0 0 1.5075 0 3.375C0 4.8375 0.945 6.075 2.25 6.5475V17.45C0.945 17.9113 0 19.1575 0 20.62C0 22.4875 1.5075 24 3.375 24C5.2425 24 6.75 22.4875 6.75 20.62C6.75 19.1575 5.805 17.9225 4.5 17.45V6.5475C5.805 6.075 6.75 4.8375 6.75 3.375C6.75 1.5075 5.2425 0 3.375 0Z" fill="#8CABD7"/>
<path fill-rule="evenodd" clip-rule="evenodd" d="M21.7501 6.9525V6.875C21.7501 4.3888 19.7363 3.375 17.2501 3.375H12.3364L13.7876 1.9237C14.0013 1.7212 14.1251 1.44 14.1251 1.125C14.1251 0.5062 13.6189 0 13.0001 0C12.6851 0 12.4039 0.1238 12.2014 0.3263L8.82632 3.7013C8.62382 3.9038 8.50012 4.185 8.50012 4.5C8.50012 4.815 8.62382 5.0963 8.82632 5.2987L12.2014 8.6737C12.4039 8.8763 12.6851 9 13.0001 9C13.6189 9 14.1251 8.4937 14.1251 7.875C14.1251 7.56 14.0013 7.2787 13.7988 7.0763L12.3364 5.625H17.2501C18.4876 5.625 19.5001 5.6375 19.5001 6.875V6.9525C18.1951 7.4138 17.2501 8.6512 17.2501 10.125C17.2501 11.9925 18.7576 13.5 20.6251 13.5C22.4926 13.5 24.0001 11.9925 24.0001 10.125C24.0001 8.6625 23.0551 7.425 21.7501 6.9525Z" fill="#8CABD7"/>
<path fill-rule="evenodd" clip-rule="evenodd" d="M21.7501 6.9525V6.875C21.7501 4.3888 19.7363 3.375 17.2501 3.375H12.3364L13.7876 1.9237C14.0013 1.7212 14.1251 1.44 14.1251 1.125C14.1251 0.5062 13.6189 0 13.0001 0C12.6851 0 12.4039 0.1238 12.2014 0.3263L8.82632 3.7013C8.62382 3.9038 8.50012 4.185 8.50012 4.5C8.50012 4.815 8.62382 5.0963 8.82632 5.2987L12.2014 8.6737C12.4039 8.8763 12.6851 9 13.0001 9C13.6189 9 14.1251 8.4937 14.1251 7.875C14.1251 7.56 14.0013 7.2787 13.7988 7.0763L12.3364 5.625H17.2501C18.4876 5.625 19.5001 5.6375 19.5001 6.875V6.9525C18.1951 7.4138 17.2501 8.6512 17.2501 10.125C17.2501 11.9925 18.7576 13.5 20.6251 13.5C22.4926 13.5 24.0001 11.9925 24.0001 10.125C24.0001 8.6625 23.0551 7.425 21.7501 6.9525Z" fill="#8CABD7"/>
<path fill-rule="evenodd" clip-rule="evenodd" d="M21.7502 17.4525V17.375C21.7502 14.8888 19.7364 13.875 17.2502 13.875H12.3365L13.7877 12.4237C14.0014 12.2212 14.1252 11.94 14.1252 11.625C14.1252 11.0062 13.619 10.5 13.0002 10.5C12.6852 10.5 12.404 10.6238 12.2015 10.8263L8.82644 14.2013C8.62394 14.4038 8.50024 14.685 8.50024 15C8.50024 15.315 8.62394 15.5963 8.82644 15.7987L12.2015 19.1737C12.404 19.3763 12.6852 19.5 13.0002 19.5C13.619 19.5 14.1252 18.9937 14.1252 18.375C14.1252 18.06 14.0014 17.7787 13.7989 17.5763L12.3365 16.125H17.2502C18.4877 16.125 19.5002 16.1375 19.5002 17.375V17.4525C18.1952 17.9138 17.2502 19.1512 17.2502 20.625C17.2502 22.4925 18.7577 24 20.6252 24C22.4927 24 24.0002 22.4925 24.0002 20.625C24.0002 19.1625 23.0552 17.925 21.7502 17.4525Z" fill="#8CABD7"/>
<path fill-rule="evenodd" clip-rule="evenodd" d="M21.7502 17.4525V17.375C21.7502 14.8888 19.7364 13.875 17.2502 13.875H12.3365L13.7877 12.4237C14.0014 12.2212 14.1252 11.94 14.1252 11.625C14.1252 11.0062 13.619 10.5 13.0002 10.5C12.6852 10.5 12.404 10.6238 12.2015 10.8263L8.82644 14.2013C8.62394 14.4038 8.50024 14.685 8.50024 15C8.50024 15.315 8.62394 15.5963 8.82644 15.7987L12.2015 19.1737C12.404 19.3763 12.6852 19.5 13.0002 19.5C13.619 19.5 14.1252 18.9937 14.1252 18.375C14.1252 18.06 14.0014 17.7787 13.7989 17.5763L12.3365 16.125H17.2502C18.4877 16.125 19.5002 16.1375 19.5002 17.375V17.4525C18.1952 17.9138 17.2502 19.1512 17.2502 20.625C17.2502 22.4925 18.7577 24 20.6252 24C22.4927 24 24.0002 22.4925 24.0002 20.625C24.0002 19.1625 23.0552 17.925 21.7502 17.4525Z" fill="#8CABD7"/>
<path fill-rule="evenodd" clip-rule="evenodd" d="M3.37524 4.5C2.75644 4.5 2.25024 3.9938 2.25024 3.375C2.25024 2.7562 2.75644 2.25 3.37524 2.25C3.99404 2.25 4.50024 2.7562 4.50024 3.375C4.50024 3.9938 3.99404 4.5 3.37524 4.5Z" fill="#215DB0"/>
<path fill-rule="evenodd" clip-rule="evenodd" d="M20.6252 11.25C20.0064 11.25 19.5002 10.7437 19.5002 10.125C19.5002 9.5062 20.0064 9 20.6252 9C21.2439 9 21.7502 9.5062 21.7502 10.125C21.7502 10.7437 21.2439 11.25 20.6252 11.25Z" fill="#215DB0"/>
<path fill-rule="evenodd" clip-rule="evenodd" d="M3.37524 21.75C2.75644 21.75 2.25024 21.2438 2.25024 20.625C2.25024 20.0062 2.75644 19.5 3.37524 19.5C3.99404 19.5 4.50024 20.0062 4.50024 20.625C4.50024 21.2438 3.99404 21.75 3.37524 21.75Z" fill="#215DB0"/>
<path fill-rule="evenodd" clip-rule="evenodd" d="M20.6252 21.75C20.0064 21.75 19.5002 21.2437 19.5002 20.625C19.5002 20.0062 20.0064 19.5 20.6252 19.5C21.2439 19.5 21.7502 20.0062 21.7502 20.625C21.7502 21.2437 21.2439 21.75 20.6252 21.75Z" fill="#215DB0"/>
</g>
<defs>
<clipPath id="clip0_1421_8012">
<rect width="24" height="24" fill="white"/>
</clipPath>
</defs>
</svg>
