<svg width="24" height="24" viewBox="0 0 24 24" fill="none" xmlns="http://www.w3.org/2000/svg">
<title>flow-capture-app</title>
<metadata>{"backgroundColor":"#E76A6E"}</metadata>
<rect x="2" y="6" width="20" height="16" rx="1" fill="#F6F7F9"/>
<rect x="2.5" y="6.5" width="19" height="15" rx="0.5" stroke="#10161A" stroke-opacity="0.3"/>
<path d="M0 4H20V19C20 19.5523 19.5523 20 19 20H1C0.447716 20 0 19.5523 0 19V4Z" fill="white"/>
<path d="M19.5 4.5V19C19.5 19.2761 19.2761 19.5 19 19.5H1C0.723858 19.5 0.5 19.2761 0.5 19V4.5H19.5Z" stroke="#10161A" stroke-opacity="0.5"/>
<rect x="3" y="7" width="9" height="5" rx="0.5" fill="#D3D8DE"/>
<rect x="1" y="15" width="18" height="4" fill="#E5E8EB"/>
<path d="M0 3C0 2.44772 0.447715 2 1 2H19C19.5523 2 20 2.44772 20 3V5H0V3Z" fill="#8F99A8"/>
<path d="M1 2.5H19C19.2761 2.5 19.5 2.72386 19.5 3V4.5H0.5V3C0.5 2.72386 0.723858 2.5 1 2.5Z" stroke="black" stroke-opacity="0.15"/>
<rect x="14" width="10" height="10" rx="5" fill="white"/>
<path d="M19 0.5C21.4864 0.5 23.5 2.51364 23.5 5C23.5 7.48636 21.4864 9.5 19 9.5C16.5136 9.5 14.5 7.48636 14.5 5C14.5 2.51364 16.5136 0.5 19 0.5Z" fill="#E76A6E" fill-opacity="0.3" stroke="#CD4246"/>
<path d="M19 2.5C20.3739 2.5 21.5 3.62614 21.5 5C21.5 6.37386 20.3739 7.5 19 7.5C17.6261 7.5 16.5 6.37386 16.5 5C16.5 3.62614 17.6261 2.5 19 2.5Z" fill="#CD4246" stroke="#CD4246"/>
<path fill-rule="evenodd" clip-rule="evenodd" d="M14 13L7 10L10 17L11 14L14 13Z" fill="white"/>
<path d="M6.64648 9.64648C6.79105 9.50191 7.00934 9.4595 7.19727 9.54004L14.1973 12.54L14.2646 12.5762C14.4155 12.6703 14.5074 12.839 14.5 13.0205C14.4924 13.2021 14.3867 13.363 14.2285 13.4443L14.1582 13.4746L11.3955 14.3955L10.4746 17.1582C10.409 17.3551 10.2279 17.4914 10.0205 17.5C9.81325 17.5085 9.6218 17.3879 9.54004 17.1973L6.54004 10.1973C6.4595 10.0093 6.50191 9.79105 6.64648 9.64648Z" stroke="#111418" stroke-opacity="0.5" stroke-linejoin="round"/>
</svg>
