<?xml version="1.0" encoding="UTF-8"?>
<svg width="24px" height="24px" viewBox="0 0 24 24" version="1.1" xmlns="http://www.w3.org/2000/svg" xmlns:xlink="http://www.w3.org/1999/xlink">
    <title>form-app</title>
    <metadata>{"backgroundColor":"#62d96b"}</metadata>
    <defs></defs>
    <g id="form-app" stroke="none" stroke-width="1" fill="none" fill-rule="evenodd">
        <g id="Shapes" transform="translate(2.000000, 0.000000)">
            <rect id="Rectangle" fill="#43BF4D" opacity="0.5" x="9" y="3" width="11" height="1" rx="0.5"></rect>
            <rect id="Rectangle-Copy" fill="#43BF4D" opacity="0.5" x="9" y="11" width="11" height="1" rx="0.5"></rect>
            <rect id="Rectangle-Copy-2" fill="#43BF4D" opacity="0.5" x="9" y="19" width="11" height="1" rx="0.5"></rect>
            <rect id="Rectangle-Copy-3" stroke="#43BF4D" opacity="0.5" x="0.5" y="17.5" width="5" height="5" rx="2"></rect>
            <path d="M6,8 C5.72,8 5.47,8.11 5.29,8.29 L3,12.59 L1.71,11.29 C1.53,11.11 1.28,11 1,11 C0.45,11 0,11.45 0,12 C0,12.28 0.11,12.53 0.29,12.71 L2.29,14.71 C2.47,14.89 2.72,15 3,15 C3.28,15 3.53,14.89 3.71,14.71 L6.71,9.71 C6.89,9.53 7,9.28 7,9 C7,8.45 6.55,8 6,8 Z" id="Shape-Copy" fill="#43BF4D" fill-rule="nonzero"></path>
            <path d="M6,0 C5.72,0 5.47,0.11 5.29,0.29 L3,4.59 L1.71,3.29 C1.53,3.11 1.28,3 1,3 C0.45,3 0,3.45 0,4 C0,4.28 0.11,4.53 0.29,4.71 L2.29,6.71 C2.47,6.89 2.72,7 3,7 C3.28,7 3.53,6.89 3.71,6.71 L6.71,1.71 C6.89,1.53 7,1.28 7,1 C7,0.45 6.55,0 6,0 Z" id="Shape-Copy-2" fill="#43BF4D" fill-rule="nonzero"></path>
        </g>
    </g>
</svg>