<?xml version="1.0" encoding="UTF-8"?>
<svg width="24px" height="24px" viewBox="0 0 24 24" version="1.1" xmlns="http://www.w3.org/2000/svg" xmlns:xlink="http://www.w3.org/1999/xlink">
    <title>fusion-app</title>
    <metadata>{"backgroundColor":"#62d96b"}</metadata>
    <defs>
        <linearGradient x1="53.3249562%" y1="137.995197%" x2="46.66%" y2="-38.3933333%" id="linearGradient-1">
            <stop stop-color="#15B371" offset="0%"></stop>
            <stop stop-color="#33C388" offset="43.18%"></stop>
            <stop stop-color="#3DCC91" offset="100%"></stop>
        </linearGradient>
    </defs>
    <g id="fusion-app" stroke="none" stroke-width="1" fill="none" fill-rule="evenodd" transform="translate(0.714467, 0.534713)">
            <path d="M4.4026798,0 L11,0 C11.5522847,-8.32667268e-17 12,0.44771525 12,1 L12,12 L1,12 C0.44771525,12 6.76353751e-17,11.5522847 0,11 L0,4.32446977 C-2.02906125e-16,2.66761552 2.74582555,2.91433544e-16 4.4026798,0 Z" id="Rectangle-path" fill="url(#linearGradient-1)"></path>
            <rect id="Rectangle-7" stroke="#0F9960" stroke-width="2" x="1" y="1" width="20" height="20" rx="3"></rect>
            <rect id="border_1_-copy-4" fill="#77C68D" x="12" y="10" width="8" height="2"></rect>
            <rect id="border_1_-copy-3" fill="#77C68D" x="10" y="12" width="2" height="8"></rect>
            <rect id="border_1_" fill="#0F9960" x="1" y="10" width="11" height="2"></rect>
            <rect id="border_1_-copy" fill="#0F9960" x="10" y="2" width="2" height="8"></rect>
    </g>
</svg>
