<?xml version="1.0" encoding="UTF-8"?>
<svg width="24" height="24" viewBox="0 0 24 24" fill="none" xmlns="http://www.w3.org/2000/svg">
    <metadata>{"backgroundColor": "#aab3bf1a"}</metadata>
    <title>HyperAuto</title>
    <g clip-path="url(#clip0_0_30)">
        <rect x="21.5" y="0.5" width="2" height="5" rx="0.5" fill="#EB6847" stroke="#D33D17"/>
        <rect x="21.5" y="18.5" width="2" height="5" rx="0.5" fill="#EB6847" stroke="#D33D17"/>
        <path fill-rule="evenodd" clip-rule="evenodd" d="M5.5 8.5C8.53417 8.5 11 7.7125 11 6.75C11 5.7875 8.53417 5 5.5 5C2.45667 5 0 5.7875 0 6.75C0 7.7125 2.45667 8.5 5.5 8.5ZM0 8.08V12C0 12.9625 2.46583 13.75 5.5 13.75C8.53417 13.75 11 12.9625 11 12V8.08C9.88167 8.85 7.84667 9.375 5.5 9.375C3.15333 9.375 1.11833 8.85 0 8.08ZM0 13.33V17.25C0 18.2125 2.46583 19 5.5 19C8.53417 19 11 18.2125 11 17.25V13.33C9.88167 14.1 7.84667 14.625 5.5 14.625C3.15333 14.625 1.11833 14.1 0 13.33Z" fill="#D3D8DE"/>
        <path d="M7 12C7 9.23858 9.23858 7 12 7C14.7614 7 17 9.23858 17 12C17 14.7614 14.7614 17 12 17C9.23858 17 7 14.7614 7 12Z" fill="white"/>
        <path fill-rule="evenodd" clip-rule="evenodd" d="M20 4H16.6499L15.3168 6.99936C16.9341 8.07419 18 9.91261 18 12C18 14.0874 16.9341 15.9258 15.3168 17.0006L16.6499 20H20V22H16.6499C15.8595 22 15.1433 21.5345 14.8223 20.8122L13.4895 17.8137C13.0133 17.9353 12.5142 18 12 18C8.68629 18 6 15.3137 6 12C6 8.68629 8.68629 6 12 6C12.5142 6 13.0133 6.06468 13.4895 6.18634L14.8223 3.18772C15.1433 2.46547 15.8595 2 16.6499 2H20V4ZM12 17C9.23858 17 7 14.7614 7 12C7 9.23858 9.23858 7 12 7C14.7614 7 17 9.23858 17 12C17 14.7614 14.7614 17 12 17Z" fill="#EB6847"/>
        <path d="M11.4 16V13H9L12.6 8V11H15L11.4 16Z" fill="#EB6847"/>
    </g>
    <defs>
        <clipPath id="clip0_0_30">
        <rect width="24" height="24" fill="white"/>
        </clipPath>
    </defs>
</svg>
