<?xml version="1.0" encoding="UTF-8"?>
<svg width="24px" height="24px" viewBox="0 0 24 24" version="1.1" xmlns="http://www.w3.org/2000/svg" xmlns:xlink="http://www.w3.org/1999/xlink">
    <title>job-tracker-app</title>
    <metadata>{"backgroundColor":"#ad99ff"}</metadata>
    <g id="job-tracker-app" stroke="none" stroke-width="1" fill="none" fill-rule="evenodd">
        <path fill-rule="evenodd" clip-rule="evenodd" d="M23.316 20.0054L11.172 9.37698L12.936 7.50562C13.428 6.9778 12.756 6.54594 13.116 5.58627C14.412 2.2754 18.144 1.99949 18.144 1.99949C18.144 1.99949 18.684 1.43568 19.188 0.895868C14.376 -1.19142 11.112 0.847884 9.648 2.16743L4.596 7.50562L3.564 8.60924C2.988 9.22103 2.988 10.2047 3.564 10.8165L2.52 11.9201C1.944 11.3083 1.008 11.3083 0.432 11.9201C-0.144 12.5319 -0.144 13.5156 0.432 14.1274L2.52 16.3346C3.096 16.9464 4.032 16.9464 4.608 16.3346C5.184 15.7228 5.184 14.7392 4.608 14.1274L5.652 13.0237C6.228 13.6355 7.164 13.6355 7.74 13.0237L9.432 11.2363L20.004 23.3162C20.916 24.2279 22.404 24.2279 23.316 23.3162C24.228 22.4045 24.228 20.9171 23.316 20.0054Z" fill="#9179F2"/>
        <path d="M18.3208 1.08812C18.2472 1.16591 18.1777 1.23925 18.1145 1.30574C18.0331 1.39138 17.9625 1.46558 17.9075 1.52321C17.7926 1.53876 17.6323 1.56425 17.438 1.60497C17.0423 1.68794 16.5007 1.83524 15.9143 2.09381C14.7415 2.61095 13.3613 3.58778 12.6504 5.40402L12.6504 5.404L12.6479 5.41066C12.4198 6.01852 12.5171 6.48165 12.5813 6.7876C12.5829 6.79527 12.5845 6.80283 12.5861 6.8103C12.6195 6.96984 12.627 7.02981 12.6231 7.07265C12.6231 7.0732 12.623 7.07376 12.623 7.07435C12.6219 7.08758 12.6199 7.11122 12.5711 7.16382C12.5708 7.16411 12.5705 7.1644 12.5703 7.16469L10.8082 9.03402L10.4523 9.41155L10.8427 9.75323L22.9735 20.37C23.6791 21.0874 23.6755 22.2499 22.9625 22.9626C22.2495 23.6754 21.0863 23.6791 20.3686 22.9737L9.80826 10.9071L9.44651 10.4937L9.06889 10.8926L7.37689 12.68L7.37596 12.681C6.99737 13.0831 6.39463 13.0831 6.01604 12.681L5.65286 12.2952L5.28877 12.6801L4.24477 13.7838L3.9205 14.1265L4.24396 14.4701C4.63868 14.8894 4.63868 15.5726 4.24396 15.9919C3.86537 16.394 3.26263 16.394 2.88404 15.9919L2.88323 15.991L0.796042 13.7846C0.795916 13.7845 0.79579 13.7844 0.795664 13.7842C0.40132 13.3649 0.401445 12.682 0.796042 12.2629C1.17463 11.8607 1.77737 11.8607 2.15596 12.2629L2.51914 12.6486L2.88323 12.2637L3.92723 11.1601L4.2515 10.8173L3.92804 10.4737C3.53332 10.0545 3.53332 9.37123 3.92804 8.95199L3.92921 8.95075L4.95915 7.8493L4.96121 7.84712L9.99731 2.52575C11.3113 1.347 14.1345 -0.433295 18.3208 1.08812Z" stroke="black" stroke-opacity="0.15"/>
    </g>
</svg>
