<svg width="24" height="24" viewBox="0 0 24 24" fill="none" xmlns="http://www.w3.org/2000/svg">
    <title>logic-flow-app</title>
    <metadata>{"backgroundColor":"#a7b6c2"}</metadata>
    <path fill-rule="evenodd" clip-rule="evenodd" d="M7.87398 13H11.5858L9.29289 15.2929L10.7071 16.7071L14.4142 13H16.126C16.5701 14.7252 18.1362 16 20 16C22.2091 16 24 14.2091 24 12C24 9.79086 22.2091 8 20 8C18.1362 8 16.5701 9.27477 16.126 11H14.4142L10.7071 7.29289L9.29289 8.70711L11.5858 11H7.87398C7.42994 9.27477 5.86384 8 4 8C1.79086 8 0 9.79086 0 12C0 14.2091 1.79086 16 4 16C5.86384 16 7.42994 14.7252 7.87398 13Z" fill="#394B59"/>
</svg>
