<svg width="24" height="24" viewBox="0 0 24 24" fill="none" xmlns="http://www.w3.org/2000/svg">
    <title>logic-app</title>
    <metadata>{"backgroundColor": "#4C90F0" }</metadata>
<path d="M20 16V10.5C20 10.2239 19.7761 10 19.5 10H16" stroke="#ABB3BF" stroke-width="2"/>
<path d="M4 16V10.5C4 10.2239 4.22386 10 4.5 10H8" stroke="#ABB3BF" stroke-width="2"/>
<path fill-rule="evenodd" clip-rule="evenodd" d="M22 16H18V18H22V16ZM18 14C16.8954 14 16 14.8954 16 16V18C16 19.1046 16.8954 20 18 20H22C23.1046 20 24 19.1046 24 18V16C24 14.8954 23.1046 14 22 14H18Z" fill="#4C90F0"/>
<path fill-rule="evenodd" clip-rule="evenodd" d="M6 16H2V18H6V16ZM2 14C0.89544 14 0 14.8954 0 16V18C0 19.1046 0.89544 20 2 20H6C7.10456 20 8 19.1046 8 18V16C8 14.8954 7.10456 14 6 14H2Z" fill="#4C90F0"/>
<path d="M6.31462 8.24047L11.2405 3.31462C11.6599 2.89513 12.3401 2.89513 12.7595 3.31462L17.6854 8.24047C18.1048 8.65995 18.1048 9.34007 17.6854 9.75955L12.7595 14.6854C12.3401 15.1048 11.6599 15.1048 11.2405 14.6854L6.31462 9.75955C5.89513 9.34007 5.89513 8.65995 6.31462 8.24047Z" fill="#8ABAFF"/>
<path fill-rule="evenodd" clip-rule="evenodd" d="M8.59324 9L12 12.4068L15.4068 9L12 5.59324L8.59324 9ZM11.2405 3.31462L6.31462 8.24047C5.89513 8.65995 5.89513 9.34007 6.31462 9.75955L11.2405 14.6854C11.6599 15.1048 12.3401 15.1048 12.7595 14.6854L17.6854 9.75955C18.1048 9.34007 18.1048 8.65995 17.6854 8.24047L12.7595 3.31462C12.3401 2.89513 11.6599 2.89513 11.2405 3.31462Z" fill="#4C90F0"/>
</svg>
