<?xml version="1.0" encoding="UTF-8"?>
<svg width="24" height="24" viewBox="0 0 24 24" fill="none" xmlns="http://www.w3.org/2000/svg">
    <title>marketplace-packaging-app</title>
    <metadata>{"backgroundColor":"#2D72D2"}</metadata>
    <g id="marketplace-packaging-app">
        <path d="M21 17.1348V11C21 10.724 20.8882 10.4741 20.7074 10.2932L20.3732 10.3169L20.3668 10.3175C20.3576 10.3184 20.34 10.3203 20.315 10.3235C20.2649 10.33 20.1862 10.3417 20.0865 10.3619C19.8851 10.4026 19.6089 10.4752 19.3139 10.6007C18.8239 10.8091 18.3304 11.1398 18 11.675V14.6379L21 17.1348Z" fill="white"/>
        <path d="M21 17.1348V11C21 10.724 20.8882 10.4741 20.7074 10.2932L20.3732 10.3169L20.3668 10.3175C20.3576 10.3184 20.34 10.3203 20.315 10.3235C20.2649 10.33 20.1862 10.3417 20.0865 10.3619C19.8851 10.4026 19.6089 10.4752 19.3139 10.6007C18.8239 10.8091 18.3304 11.1398 18 11.675V14.6379L21 17.1348Z" fill="#B6CEEF"/>
        <path d="M18 10.2131C18.101 10.1356 18.2038 10.0648 18.3072 10H18V10.2131Z" fill="white"/>
        <path d="M18 10.2131C18.101 10.1356 18.2038 10.0648 18.3072 10H18V10.2131Z" fill="#B6CEEF"/>
        <path d="M7.62451 18H6V10H4C3.44772 10 3 10.4477 3 11V22C3 22.5523 3.44772 23 4 23H18.8093L14.6375 18H12.4099C12.4054 18.5082 12.2131 19.0149 11.833 19.4042C11.0506 20.2054 9.77439 20.2054 8.99203 19.4042L8.9911 19.4032L7.62451 18Z" fill="white"/>
        <path d="M7.62451 18H6V10H4C3.44772 10 3 10.4477 3 11V22C3 22.5523 3.44772 23 4 23H18.8093L14.6375 18H12.4099C12.4054 18.5082 12.2131 19.0149 11.833 19.4042C11.0506 20.2054 9.77439 20.2054 8.99203 19.4042L8.9911 19.4032L7.62451 18Z" fill="#B6CEEF"/>
        <path d="M11.4098 18C11.4054 18.2559 11.3079 18.5105 11.1175 18.7055C10.7275 19.1049 10.0975 19.1049 9.7075 18.7055L9.02038 18H11.4098Z" fill="white"/>
        <path d="M11.4098 18C11.4054 18.2559 11.3079 18.5105 11.1175 18.7055C10.7275 19.1049 10.0975 19.1049 9.7075 18.7055L9.02038 18H11.4098Z" fill="#B6CEEF"/>
        <path d="M15.9398 18H18V15.939L21 18.4358V22C21 22.5161 20.609 22.9409 20.107 22.9943L15.9398 18Z" fill="white"/>
        <path d="M15.9398 18H18V15.939L21 18.4358V22C21 22.5161 20.609 22.9409 20.107 22.9943L15.9398 18Z" fill="#B6CEEF"/>
        <path d="M5 19H8.5984L7.62451 18H5V19Z" fill="#6497DE"/>
        <path d="M5 15H6V10H4C3.44772 10 3 10.4477 3 11V17H4V11H5V15Z" fill="#6497DE"/>
        <path d="M4 20H3V22C3 22.5523 3.44772 23 4 23H6V22H4V20Z" fill="#6497DE"/>
        <path d="M9 22V23H12V22H9Z" fill="#6497DE"/>
        <path d="M15 22V23H18V22.03L17.975 22H15Z" fill="#6497DE"/>
        <path d="M21 17.1348V11C21 10.724 20.8882 10.4741 20.7074 10.2932L20.3732 10.3169L20.3668 10.3175C20.3576 10.3184 20.34 10.3203 20.315 10.3235C20.2649 10.33 20.1862 10.3417 20.0865 10.3619C19.8851 10.4026 19.6089 10.4752 19.3139 10.6007C18.8239 10.8091 18.3304 11.1398 18 11.675V14.6379L19 15.4702V11H20V16.3025L21 17.1348Z" fill="#6497DE"/>
        <path d="M19 16.7713L18 15.939V18H15.9398L16.7742 19H19V16.7713Z" fill="#6497DE"/>
        <path d="M20 22H19.2773L20.107 22.9943C20.609 22.9409 21 22.5161 21 22V18.4358L20 17.6036V22Z" fill="#6497DE"/>
        <path d="M15.4718 19L14.6375 18H12.4099C12.4068 18.3462 12.3166 18.6918 12.1392 19H15.4718Z" fill="#6497DE"/>
        <path d="M10.5121 19H10.3129C10.0921 18.9774 9.87709 18.8792 9.7075 18.7055L9.02038 18H11.4098C11.4054 18.2559 11.3079 18.5105 11.1175 18.7055C10.9479 18.8792 10.7329 18.9774 10.5121 19Z" fill="#6497DE"/>
        <path d="M18 10H18.3072C18.2038 10.0648 18.101 10.1356 18 10.2131V10Z" fill="#6497DE"/>
        <rect x="5" y="20" width="10" height="1" fill="#2D72D2" fill-opacity="0.35"/>
        <path d="M2.31064 2.24254C2.15285 1.61139 2.63021 1 3.28078 1H20.7192C21.3698 1 21.8472 1.61139 21.6894 2.24254L21 5H3.00001L2.31064 2.24254Z" fill="white"/>
        <path d="M2.31064 2.24254C2.15285 1.61139 2.63021 1 3.28078 1H20.7192C21.3698 1 21.8472 1.61139 21.6894 2.24254L21 5H3.00001L2.31064 2.24254Z" fill="#B6CEEF"/>
        <path d="M20 2H20.7192L20.2192 4H3.78077L3.28077 2H4.99999V1H3.28077C2.63019 1 2.15284 1.61139 2.31062 2.24253L2.99999 5H21L21.6894 2.24254C21.8471 1.61139 21.3698 1 20.7192 1H20V2Z" fill="#2D72D2" fill-opacity="0.6"/>
        <path d="M17 2V1H14V2H17Z" fill="#2D72D2" fill-opacity="0.6"/>
        <path d="M11 2V1H7.99999V2H11Z" fill="#2D72D2" fill-opacity="0.6"/>
        <path d="M1.79278 3.72528C1.91543 3.29598 2.30782 3 2.7543 3H21.2457C21.6922 3 22.0846 3.29598 22.2072 3.72528L24 10C24 12.2091 22.2091 14 20 14C19.1569 14 18.3747 13.7392 17.7298 13.2938C17.8168 13.135 17.8723 12.9601 17.891 12.7721C17.9161 12.52 17.8646 12.2909 17.8451 12.2045L17.8417 12.1893C17.8199 12.0901 17.8142 12.0555 17.8146 12.041C18.1225 11.2844 18.7208 10.8529 19.3139 10.6007C19.6089 10.4752 19.8851 10.4026 20.0865 10.3619C20.1862 10.3417 20.2649 10.33 20.315 10.3235C20.34 10.3203 20.3576 10.3184 20.3668 10.3175L20.3732 10.3169L20.748 10.2903L21.0139 10.0175L21.0741 9.95583C21.1128 9.91624 21.1682 9.85976 21.2343 9.79244C21.367 9.65755 21.5421 9.48023 21.7141 9.3085L22.767 8.25714L21.3958 7.67933C17.6595 6.10491 15.0501 7.64942 13.878 8.67794L13.8494 8.70301L10.4044 12.2232L9.69599 12.9405L9.69203 12.9446C9.63088 13.0072 9.57458 13.0729 9.52315 13.1411C8.59543 12.4086 8 11.2738 8 10C8 12.2091 6.20914 14 4 14C1.79086 14 0 12.2091 0 10L1.79278 3.72528Z" fill="white"/>
        <path d="M1.79278 3.72528C1.91543 3.29598 2.30782 3 2.7543 3H21.2457C21.6922 3 22.0846 3.29598 22.2072 3.72528L24 10C24 12.2091 22.2091 14 20 14C19.1569 14 18.3747 13.7392 17.7298 13.2938C17.8168 13.135 17.8723 12.9601 17.891 12.7721C17.9161 12.52 17.8646 12.2909 17.8451 12.2045L17.8417 12.1893C17.8199 12.0901 17.8142 12.0555 17.8146 12.041C18.1225 11.2844 18.7208 10.8529 19.3139 10.6007C19.6089 10.4752 19.8851 10.4026 20.0865 10.3619C20.1862 10.3417 20.2649 10.33 20.315 10.3235C20.34 10.3203 20.3576 10.3184 20.3668 10.3175L20.3732 10.3169L20.748 10.2903L21.0139 10.0175L21.0741 9.95583C21.1128 9.91624 21.1682 9.85976 21.2343 9.79244C21.367 9.65755 21.5421 9.48023 21.7141 9.3085L22.767 8.25714L21.3958 7.67933C17.6595 6.10491 15.0501 7.64942 13.878 8.67794L13.8494 8.70301L10.4044 12.2232L9.69599 12.9405L9.69203 12.9446C9.63088 13.0072 9.57458 13.0729 9.52315 13.1411C8.59543 12.4086 8 11.2738 8 10C8 12.2091 6.20914 14 4 14C1.79086 14 0 12.2091 0 10L1.79278 3.72528Z" fill="#2D72D2" fill-opacity="0.35"/>
        <path d="M20.1379 9.33843C19.8136 9.38481 19.0459 9.53723 18.3072 10C17.7496 10.3493 17.2087 10.8754 16.8875 11.6662C16.7702 11.9736 16.8201 12.1999 16.8621 12.3905C16.8713 12.4325 16.8802 12.4728 16.8868 12.5118C16.3321 11.8252 16 10.9514 16 10C16 12.2091 14.2091 14 12 14C11.4269 14 10.882 13.8795 10.3892 13.6624L10.3956 13.6556L10.4075 13.6432L11.1175 12.9243L14.5375 9.4296C15.4176 8.65733 17.262 7.51416 19.9581 8.23809C20.2947 8.32846 20.6446 8.44794 21.0075 8.60086C20.6575 8.95033 20.2975 9.31977 20.2975 9.31977C20.2975 9.31977 20.2394 9.3239 20.1379 9.33843Z" fill="white"/>
        <path d="M20.1379 9.33843C19.8136 9.38481 19.0459 9.53723 18.3072 10C17.7496 10.3493 17.2087 10.8754 16.8875 11.6662C16.7702 11.9736 16.8201 12.1999 16.8621 12.3905C16.8713 12.4325 16.8802 12.4728 16.8868 12.5118C16.3321 11.8252 16 10.9514 16 10C16 12.2091 14.2091 14 12 14C11.4269 14 10.882 13.8795 10.3892 13.6624L10.3956 13.6556L10.4075 13.6432L11.1175 12.9243L14.5375 9.4296C15.4176 8.65733 17.262 7.51416 19.9581 8.23809C20.2947 8.32846 20.6446 8.44794 21.0075 8.60086C20.6575 8.95033 20.2975 9.31977 20.2975 9.31977C20.2975 9.31977 20.2394 9.3239 20.1379 9.33843Z" fill="#2D72D2" fill-opacity="0.35"/>
        <path d="M2.18287 6L2.7543 4H4V3H2.7543C2.30782 3 1.91544 3.29596 1.79278 3.72528L1.14286 6H2.18287Z" fill="#6497DE"/>
        <path d="M20 3V4H21.2457L21.5314 5H22.5714L22.2072 3.72528C22.0846 3.29596 21.6922 3 21.2457 3H20Z" fill="#6497DE"/>
        <path d="M1.32573 9L1.00278 10.1303C1.07101 11.7267 2.38681 13 4 13C4.88851 13 5.6868 12.6138 6.23612 12H7.46487C7.4557 12.0159 7.44642 12.0317 7.43703 12.0474C6.73892 13.2168 5.46093 14 4 14C1.79086 14 0 12.2092 0 10L0.285714 9H1.32573Z" fill="#6497DE"/>
        <path d="M22.3886 8H23.4286L24 10H22.96L22.3886 8Z" fill="#6497DE"/>
        <path d="M23.4649 12H22.2361C21.6868 12.6138 20.8885 13 20 13C19.139 13 18.3627 12.6373 17.8156 12.0564C17.8181 12.0769 17.8254 12.1149 17.8417 12.1893L17.8451 12.2045C17.8646 12.2909 17.9161 12.52 17.891 12.7721C17.8723 12.9601 17.8168 13.135 17.7298 13.2938C18.3747 13.7392 19.1569 14 20 14C21.4806 14 22.7733 13.1956 23.4649 12Z" fill="#6497DE"/>
        <path d="M8.56297 12.0474C8.20669 11.4506 8.00145 10.7531 8.00001 10.0079L8 10H9C9 10.9891 9.47869 11.8665 10.217 12.4129L9.69599 12.9405L9.69203 12.9446C9.63087 13.0072 9.57458 13.0729 9.52315 13.1411C9.14035 12.8388 8.81413 12.4681 8.56297 12.0474Z" fill="#6497DE"/>
        <path d="M11.1175 12.9243L11.1601 12.8808C11.4266 12.9584 11.7084 13 12 13C13.6569 13 15 11.6569 15 10H16C16 10.7482 15.7946 11.4485 15.437 12.0474C14.7389 13.2168 13.4609 14 12 14C11.4269 14 10.882 13.8795 10.3892 13.6624C10.3952 13.656 10.4013 13.6496 10.4075 13.6432L11.1175 12.9243Z" fill="#6497DE"/>
        <path d="M16 10H17C17 10.378 17.0699 10.7398 17.1975 11.0729C17.0804 11.2519 16.9757 11.4491 16.8875 11.6662C16.7702 11.9736 16.8201 12.1999 16.8621 12.3905C16.8713 12.4325 16.8802 12.4728 16.8868 12.5118C16.7684 12.3652 16.6601 12.21 16.563 12.0474C16.2054 11.4485 16 10.7482 16 10Z" fill="#6497DE"/>
        <path fill-rule="evenodd" clip-rule="evenodd" d="M23.3921 20.4271L15.6973 14.0208L16.768 12.9214C17.1082 12.5816 16.6479 12.2918 16.8881 11.6621C17.7686 9.49339 20.3002 9.3135 20.3002 9.3135C20.3002 9.3135 20.6604 8.94371 21.0106 8.59391C17.7386 7.21471 15.5272 8.55394 14.5366 9.42343L11.1144 12.9214L10.404 13.641C10.0138 14.0408 10.0138 14.6904 10.404 15.0902L9.70356 15.8097C9.31332 15.41 8.68293 15.41 8.29268 15.8097C7.90244 16.2095 7.90244 16.8591 8.29268 17.2589L9.70356 18.7081C10.0938 19.1078 10.7242 19.1078 11.1144 18.7081C11.5047 18.3083 11.5047 17.6587 11.1144 17.2589L11.8249 16.5393C12.2151 16.9391 12.8455 16.9391 13.2358 16.5393L14.0363 15.7198L20.4303 23.3854C21.2508 24.2049 22.5716 24.2049 23.3921 23.3854C24.2026 22.5658 24.2026 21.2366 23.3921 20.4271Z" fill="#2D72D2"/>
    </g>
</svg>
