<?xml version="1.0" encoding="UTF-8"?>
<svg width="24" height="24" viewBox="0 0 24 24" fill="none" xmlns="http://www.w3.org/2000/svg">
    <title>marketplace-app</title>
    <metadata>{"backgroundColor":"#2D72D2"}</metadata>
    <g id="marketplace-app">
        <path d="M18 18.5H18.5V18V10.5H20C20.2761 10.5 20.5 10.7239 20.5 11V22C20.5 22.2761 20.2761 22.5 20 22.5H4C3.72386 22.5 3.5 22.2761 3.5 22V11C3.5 10.7239 3.72386 10.5 4 10.5H5.5V18V18.5H6H18Z" fill="white" stroke="#2D72D2"/>
        <rect x="6" y="10" width="12" height="8" fill="#2D72D2" fill-opacity="0.3"/>
        <rect x="5" y="20" width="14" height="1" fill="#2D72D2" fill-opacity="0.3"/>
        <path d="M3.28078 1.5H20.7192C21.0445 1.5 21.2832 1.8057 21.2043 2.12127L20.6096 4.5H3.39039L2.79571 2.12127C2.71681 1.80569 2.95549 1.5 3.28078 1.5Z" fill="#EB6847" stroke="#D33D17"/>
        <path d="M8 10C8 12.2091 6.20914 14 4 14C1.79086 14 0 12.2091 0 10H8Z" fill="#D33D17"/>
        <path d="M16 10H8C8 12.2091 9.79086 14 12 14C14.2091 14 16 12.2091 16 10Z" fill="#D33D17"/>
        <path d="M24 10H16C16 12.2091 17.7909 14 20 14C22.2091 14 24 12.2091 24 10Z" fill="#D33D17"/>
        <path d="M1.79278 3.72528C1.91543 3.29598 2.30782 3 2.7543 3H21.2457C21.6922 3 22.0846 3.29598 22.2072 3.72528L24 10H0L1.79278 3.72528Z" fill="#EB6847"/>
        <path fill-rule="evenodd" clip-rule="evenodd" d="M2.7543 4L1.00278 10.1303C1.07101 11.7267 2.38681 13 4 13C5.65686 13 7 11.6569 7 10H8C8 10.7482 7.79457 11.4485 7.43703 12.0474C6.73892 13.2168 5.46093 14 4 14C1.79086 14 0 12.2092 0 10L1.79278 3.72528C1.91544 3.29596 2.30782 3 2.7543 3H21.2457C21.6922 3 22.0846 3.29596 22.2072 3.72528L24 10C24 12.2092 22.2091 14 20 14C18.5391 14 17.2611 13.2168 16.563 12.0474C16.2054 11.4485 16 10.7482 16 10H17C17 11.6569 18.3431 13 20 13C21.6132 13 22.929 11.7267 22.9972 10.1303L21.2457 4H2.7543ZM15.437 12.0474C15.7946 11.4485 16 10.7482 16 10H15C15 11.6569 13.6569 13 12 13C10.3431 13 9 11.6569 9 10H8C8 10.7482 8.20543 11.4485 8.56297 12.0474C9.26108 13.2168 10.5391 14 12 14C13.4609 14 14.7389 13.2168 15.437 12.0474Z" fill="#D33D17"/>
        <path d="M17 10H16H15C15 11.6569 13.6569 13 12 13C10.3431 13 9 11.6569 9 10H8H7C7 11.6569 5.65686 13 4 13C2.38681 13 1.07101 11.7267 1.00278 10.1303L1.04002 10H0C0 12.2092 1.79086 14 4 14C5.46093 14 6.73892 13.2168 7.43703 12.0474C7.79457 11.4485 8 10.7482 8 10C8 10.7482 8.20543 11.4485 8.56297 12.0474C9.26108 13.2168 10.5391 14 12 14C13.4609 14 14.7389 13.2168 15.437 12.0474C15.7946 11.4485 16 10.7482 16 10C16 10.7482 16.2054 11.4485 16.563 12.0474C17.2611 13.2168 18.5391 14 20 14C22.2091 14 24 12.2092 24 10H22.96L22.9972 10.1303C22.929 11.7267 21.6132 13 20 13C18.3431 13 17 11.6569 17 10Z" fill="#B83211"/>
    </g>
</svg>
