<?xml version="1.0" encoding="UTF-8"?>
<svg width="24" height="24" viewBox="0 0 24 24" fill="none" xmlns="http://www.w3.org/2000/svg">
    <title>model-studio-app</title>
    <metadata>{"backgroundColor":"#9775f61a"}</metadata>
    <path fill-rule="evenodd" clip-rule="evenodd" d="M21.8351 17.5661C21.8688 17.7213 21.7501 17.8671 21.5912 17.8671H2.35758C2.21643 17.8671 2.1032 17.7513 2.10812 17.6102C2.18351 15.449 2.40823 11.712 3.06659 8.47888C3.41485 6.76865 3.8628 5.31322 4.40838 4.32061C4.97377 3.29198 5.419 3.13379 5.66704 3.13379C6.28162 3.13379 6.73146 3.37202 7.15279 3.82626C7.61719 4.32692 8.0085 5.05484 8.4011 5.94839C8.50864 6.19314 8.62316 6.46903 8.74215 6.75569L8.74216 6.75571C9.00376 7.38594 9.28698 8.06822 9.56509 8.58611C9.9292 9.26414 10.6988 10.5005 12.1405 10.5005C13.8359 10.5005 14.7969 9.33763 15.3314 8.69094L15.3314 8.69092C15.3815 8.63027 15.4279 8.57417 15.4708 8.52399C15.7739 8.1692 15.9914 7.94745 16.2322 7.79565C16.4413 7.66391 16.7193 7.55379 17.1753 7.55379C17.411 7.55379 17.8037 7.69053 18.3514 8.34312C18.889 8.98368 19.414 9.93759 19.9009 11.098C20.8024 13.2463 21.4513 15.8012 21.8351 17.5661Z" fill="#9775F6"/>
    <path d="M5.66699 2.63379C6.44627 2.63379 7.02251 2.95049 7.51953 3.48633C8.04405 4.05186 8.46222 4.84543 8.8584 5.74707C8.9684 5.99744 9.08562 6.27902 9.2041 6.56445C9.46866 7.20179 9.74205 7.85836 10.0059 8.34961C10.3762 9.03913 11.0197 10 12.1406 10C13.5797 9.99993 14.4059 9.02595 14.9463 8.37207L14.9502 8.36719C14.9982 8.3091 15.0461 8.25157 15.0908 8.19922C15.3967 7.84116 15.6559 7.56838 15.9658 7.37305C16.255 7.1908 16.6257 7.05371 17.1758 7.05371C17.6229 7.05389 18.1425 7.31625 18.7344 8.02148C19.3186 8.71759 19.867 9.72399 20.3623 10.9043C21.2816 13.095 21.9374 15.6854 22.3232 17.46C22.4255 17.9302 22.0651 18.3672 21.5908 18.3672H2.35742C1.93705 18.3671 1.59349 18.0202 1.6084 17.5928L1.64453 16.709C1.74752 14.4897 1.99266 11.2445 2.57617 8.37891C2.92781 6.6521 3.38799 5.13865 3.96973 4.08008C4.56739 2.99272 5.14476 2.63381 5.66699 2.63379Z" stroke="#10161A" stroke-opacity="0.5"/>
    <path fill-rule="evenodd" clip-rule="evenodd" d="M21.1608 19.6905L14.7485 14.3526L15.6407 13.4366C15.9242 13.1535 15.5406 12.912 15.7408 12.3873C16.4746 10.5803 18.5842 10.4304 18.5842 10.4304C18.5842 10.4304 18.8844 10.1223 19.1763 9.8308C16.4495 8.68161 14.6067 9.79749 13.7812 10.522L10.9294 13.4366L10.3373 14.0362C10.0121 14.3693 10.0121 14.9105 10.3373 15.2436L9.75363 15.8432C9.42843 15.5101 8.90309 15.5101 8.57789 15.8432C8.25268 16.1763 8.25268 16.7176 8.57789 17.0507L9.75363 18.2582C10.0788 18.5913 10.6042 18.5913 10.9294 18.2582C11.2546 17.9251 11.2546 17.3838 10.9294 17.0507L11.5214 16.4511C11.8466 16.7842 12.372 16.7842 12.6972 16.4511L13.3643 15.7683L18.6926 22.1554C19.3764 22.8383 20.4771 22.8383 21.1608 22.1554C21.8363 21.4726 21.8363 20.365 21.1608 19.6905Z" fill="white"/>
    <path d="M13.4512 10.1465C14.3677 9.34209 16.4103 8.12282 19.3701 9.37012L20.0557 9.65918L19.5293 10.1846C19.3849 10.3288 19.2379 10.478 19.127 10.5908C19.0717 10.647 19.0255 10.6944 18.9932 10.7275C18.977 10.7441 18.9637 10.7568 18.9551 10.7656C18.9508 10.77 18.9475 10.7741 18.9453 10.7764L18.9424 10.7793L18.8096 10.916L18.6201 10.9287C18.6184 10.9289 18.6147 10.9292 18.6094 10.9297C18.5985 10.9308 18.58 10.9334 18.5557 10.9365C18.507 10.9428 18.4333 10.9532 18.3418 10.9717C18.1574 11.009 17.905 11.0761 17.6338 11.1914C17.0916 11.422 16.5099 11.8311 16.208 12.5654L16.1855 12.6436C16.1722 12.7167 16.1848 12.7811 16.21 12.8955C16.2249 12.9636 16.2613 13.1139 16.2451 13.2764C16.2259 13.4691 16.1408 13.6396 15.998 13.7842L15.999 13.7852L15.4834 14.3135L21.4805 19.3066L21.498 19.3203L21.5146 19.3369C22.3864 20.2079 22.3832 21.6305 21.5166 22.5068L21.5146 22.5088C20.6357 23.3866 19.2178 23.3866 18.3389 22.5088L18.3232 22.4932L18.3086 22.4756L13.334 16.5127L13.0547 16.8008C12.6592 17.2056 12.0761 17.3022 11.5898 17.0928L11.5635 17.1191C11.7722 17.6117 11.6809 18.204 11.2871 18.6074C10.7982 19.1082 10.0218 19.1394 9.49707 18.7012L9.39551 18.6074L8.2207 17.3994C7.70595 16.8722 7.70518 16.0215 8.21973 15.4941C8.61417 15.0901 9.19604 14.9919 9.68164 15.1992L9.7041 15.1768C9.49451 14.6839 9.58522 14.0904 9.97949 13.6865L9.98145 13.6846L10.5732 13.085L13.4238 10.1719L13.4512 10.1465Z" stroke="#10161A" stroke-opacity="0.5"/>
</svg>
