<svg width="24" height="24" viewBox="0 0 24 24" fill="none" xmlns="http://www.w3.org/2000/svg">
<title>model-app</title>
<metadata>{"backgroundColor":"#9775F6"}</metadata>
<path fill-rule="evenodd" clip-rule="evenodd" d="M22.9918 19.6981C23.0267 19.8536 22.9079 20 22.7485 20H1.25814C1.11693 20 1.00368 19.8839 1.00867 19.7427C1.09167 17.399 1.34064 13.3265 2.07441 9.80462C2.46136 7.94736 2.95908 6.36681 3.56529 5.28886C4.19349 4.1718 4.6882 4 4.9638 4C5.64666 4 6.14649 4.25872 6.61463 4.752C7.13063 5.29571 7.56542 6.0862 8.00165 7.05659C8.12113 7.32238 8.24838 7.62198 8.38059 7.93329C8.67126 8.61769 8.98595 9.35866 9.29496 9.92107C9.69953 10.6574 10.5546 12 12.1565 12C14.0403 12 15.1081 10.9323 15.702 10.23C15.7577 10.1641 15.8092 10.1045 15.8568 10.05C16.1936 9.66471 16.4353 9.42486 16.7029 9.26C16.9351 9.11694 17.244 9 17.7508 9C18.0126 9 18.449 9.1513 19.0575 9.86C19.6549 10.5556 20.2382 11.3887 20.7792 12.6489C21.7853 14.9921 22.5607 17.7807 22.9918 19.6981Z" fill="#9775F6"/>
<path fill-rule="evenodd" clip-rule="evenodd" d="M22.7485 21H1.25816C0.55685 21 -0.0159301 20.4203 0.00931836 19.7073C0.0928521 17.3485 0.343942 13.2077 1.09545 9.60066C1.48964 7.70862 2.01251 6.00994 2.69369 4.79868C3.39186 3.55719 4.15148 3 4.96382 3C5.96775 3 6.71786 3.40807 7.34 4.06362C7.97874 4.73666 8.46965 5.65868 8.91374 6.64657C9.0375 6.92185 9.1681 7.22936 9.29838 7.53612L9.30104 7.54238C9.59791 8.24138 9.8918 8.93065 10.1714 9.43953C10.5834 10.1894 11.1848 11 12.1565 11C13.5961 11 14.4097 10.2095 14.9384 9.58431C14.9983 9.51344 15.0535 9.44957 15.104 9.39187C15.4482 8.9981 15.7732 8.65821 16.1784 8.40858C16.5743 8.16473 17.0659 8 17.7508 8C18.4291 8 19.1178 8.39519 19.8162 9.20854C20.4714 9.97147 21.1123 10.8899 21.6981 12.2544C22.7372 14.6746 23.5289 17.5278 23.9674 19.4788C24.1451 20.2689 23.5388 21 22.7485 21ZM15.8569 10.05C16.1936 9.66471 16.4353 9.42486 16.7029 9.26C16.9352 9.11694 17.2441 9 17.7508 9C18.0126 9 18.449 9.1513 19.0576 9.86C19.6549 10.5556 20.2382 11.3887 20.7792 12.6489C21.7853 14.9921 22.5607 17.7807 22.9918 19.6981C23.0267 19.8536 22.9079 20 22.7485 20H1.25816C1.11694 20 1.00369 19.8839 1.00869 19.7427C1.09169 17.399 1.34066 13.3265 2.07443 9.80462C2.46138 7.94736 2.9591 6.36681 3.56531 5.28886C4.19351 4.1718 4.68822 4 4.96382 4C5.64668 4 6.14651 4.25872 6.61465 4.752C7.13065 5.29571 7.56544 6.0862 8.00167 7.05659C8.12114 7.32235 8.24837 7.62192 8.38057 7.93319C8.67123 8.61759 8.98597 9.35867 9.29498 9.92107C9.69954 10.6574 10.5546 12 12.1565 12C14.0403 12 15.1081 10.9323 15.702 10.23C15.7577 10.1641 15.8092 10.1045 15.8569 10.05Z" fill="#10161A" fill-opacity="0.5"/>
</svg>
