<svg width="24" height="24" viewBox="0 0 24 24" fill="none" xmlns="http://www.w3.org/2000/svg">
<title>modeling-objective-app</title>
<metadata>{"backgroundColor":"#9775F6"}</metadata>
<rect x="1" y="2" width="22" height="20" fill="white"/>
<path fill-rule="evenodd" clip-rule="evenodd" d="M18.9974 17.988C18.9987 17.9943 18.994 18 18.9876 18H5.01034C5.00469 18 5.00016 17.9956 5.00034 17.9899C5.04758 16.5541 5.20034 13.9066 5.68373 11.6279C5.92998 10.4671 6.24671 9.47925 6.63248 8.80554C7.03224 8.10737 7.34706 8 7.52244 8C7.95699 8 8.27506 8.1617 8.57297 8.47C8.90133 8.80982 9.17801 9.30388 9.45561 9.91037C9.53165 10.0765 9.61262 10.2637 9.69676 10.4583C9.88173 10.8861 10.082 11.3492 10.2786 11.7007C10.5361 12.1609 11.0802 13 12.0996 13C13.2984 13 13.9779 12.2107 14.3558 11.7718C14.3913 11.7307 14.4241 11.6926 14.4544 11.6585C14.6687 11.4177 14.8225 11.2672 14.9928 11.1642C15.1406 11.0747 15.3371 11 15.6596 11C15.8262 11 16.1039 11.0928 16.4912 11.5357C16.8713 11.9705 17.2425 12.618 17.5868 13.4056C18.2592 14.9438 18.7329 16.7891 18.9974 17.988Z" fill="#9775F6"/>
<path fill-rule="evenodd" clip-rule="evenodd" d="M5.04292 17C5.12157 15.5139 5.29665 13.4527 5.68374 11.6279C5.92998 10.4671 6.24671 9.47925 6.63248 8.80554C7.03225 8.10737 7.34706 8 7.52244 8C7.95699 8 8.27506 8.1617 8.57297 8.47C8.90133 8.80982 9.17802 9.30388 9.45562 9.91037C9.53163 10.0764 9.61258 10.2636 9.69669 10.4581C9.88166 10.8859 10.082 11.3492 10.2786 11.7007C10.5361 12.1609 11.0802 13 12.0996 13C13.2984 13 13.9779 12.2107 14.3558 11.7718C14.3913 11.7307 14.4241 11.6926 14.4544 11.6585C14.6687 11.4177 14.8225 11.2672 14.9928 11.1642C15.1406 11.0747 15.3371 11 15.6596 11C15.8262 11 16.1039 11.0928 16.4912 11.5357C16.8713 11.9705 17.2425 12.618 17.5868 13.4056C18.0938 14.5654 18.4878 15.8997 18.7643 17C18.8501 17.3411 18.9245 17.6598 18.9876 17.9437C18.9909 17.9586 18.9941 17.9734 18.9974 17.988C18.9988 17.9943 18.994 18 18.9876 18H5.01035C5.0047 18 5.00016 17.9956 5.00035 17.9899C5.00326 17.9013 5.00658 17.8081 5.01035 17.7107C5.01875 17.4936 5.02943 17.255 5.04292 17ZM18.9876 19H5.01035C4.47277 19 3.98104 18.5602 4.00089 17.957C4.0486 16.5066 4.2033 13.7878 4.70551 11.4204C4.9593 10.224 5.302 9.11666 5.76467 8.30863C6.23861 7.48093 6.81945 7 7.52244 7C8.27162 7 8.83827 7.30546 9.2921 7.77512C9.74494 8.24376 10.079 8.86946 10.3649 9.49417C10.4509 9.68202 10.5326 9.87178 10.6146 10.0614C10.8059 10.5038 10.9849 10.9148 11.1514 11.2124C11.2643 11.4144 11.4011 11.6247 11.5741 11.7812C11.7315 11.9235 11.8931 12 12.0996 12C12.7502 12 13.2016 11.5797 13.6007 11.1162C13.6341 11.0775 13.6715 11.034 13.7074 10.9937C13.9285 10.7453 14.1666 10.4953 14.4751 10.3086C14.7815 10.1232 15.1576 10 15.6596 10C16.2325 10 16.7613 10.3254 17.244 10.8775C17.7208 11.4229 18.1406 12.1759 18.5031 13.005C19.215 14.6336 19.7052 16.5545 19.9739 17.7726C20.1188 18.4295 19.6056 19 18.9876 19Z" fill="#10161A" fill-opacity="0.5"/>
<path fill-rule="evenodd" clip-rule="evenodd" d="M23 2H1V22H23V2ZM1 1H23C23.5 1 24 1.5 24 2V22C24 22.5 23.5 23 23 23H1C0.5 23 0 22.5 0 22V2C0 1.5 0.5 1 1 1Z" fill="#10161A" fill-opacity="0.5"/>
<path d="M1 2H23V4H1V2Z" fill="#9775F6"/>
</svg>
