<svg width="24" height="24" viewBox="0 0 24 24" fill="none" xmlns="http://www.w3.org/2000/svg">
<metadata>{"backgroundColor":"#9775F6"}</metadata>
<path d="M3 21C3 20.4477 3.44772 20 4 20H23V23H4C3.44772 23 3 22.5523 3 22V21Z" fill="white"/>
<path d="M3 21C3 20.4477 3.44772 20 4 20H23V23H4C3.44772 23 3 22.5523 3 22V21Z" fill="#9881F3" fill-opacity="0.75"/>
<path d="M23 0C23.5523 2.57702e-07 24 0.447715 24 1V20C23.7479 20 23.5846 20.0801 23.4648 20.1865C23.3349 20.3021 23.2317 20.4721 23.1553 20.6758C23.0797 20.8774 23.0399 21.0868 23.0195 21.25C23.0096 21.3299 23.0044 21.3958 23.002 21.4404C23.0008 21.4627 23.0003 21.48 23 21.4902V21.5098C23.0003 21.52 23.0008 21.5373 23.002 21.5596C23.0044 21.6042 23.0096 21.6701 23.0195 21.75C23.0399 21.9132 23.0797 22.1226 23.1553 22.3242C23.2317 22.5279 23.3349 22.6979 23.4648 22.8135C23.5846 22.9199 23.7479 23 24 23V24H3C1.34315 24 0 22.6569 0 21V3C0 1.34315 1.34315 0 3 0H23ZM4 20C3.44772 20 3 20.4477 3 21V22C3 22.5523 3.44772 23 4 23H22.3701C22.3111 22.8902 22.2594 22.7817 22.2197 22.6758C22.108 22.3778 22.0538 22.0866 22.0273 21.875C22.014 21.7679 22.0074 21.677 22.0039 21.6123C22.0022 21.5802 22.0015 21.5541 22.001 21.5352C22.0007 21.5256 22.0001 21.5176 22 21.5117V21.4883C22.0001 21.4824 22.0007 21.4744 22.001 21.4648C22.0015 21.4459 22.0022 21.4198 22.0039 21.3877C22.0074 21.323 22.014 21.2321 22.0273 21.125C22.0538 20.9134 22.108 20.6222 22.2197 20.3242C22.2594 20.2183 22.3111 20.1098 22.3701 20H4Z" fill="#7961DB"/>
<path d="M0 3C0 1.89543 0.895431 1 2 1H3V19.8462V21.5C3 22.3284 2.32843 23 1.5 23V23L0 20V3Z" fill="#7961DB"/>
<rect x="3" y="1" width="20" height="18" fill="#E2DBFF"/>
<path fill-rule="evenodd" clip-rule="evenodd" d="M19.9319 14.697C19.9677 14.8526 19.8488 15 19.689 15H6.2584C6.11713 15 6.00385 14.8835 6.00922 14.7423C6.06547 13.2641 6.22701 10.7813 6.68382 8.62789C6.93006 7.4671 7.2468 6.47925 7.63257 5.80554C8.03233 5.10737 8.34714 5 8.52253 5C8.95707 5 9.27515 5.1617 9.57306 5.47C9.90142 5.80982 10.1781 6.30388 10.4557 6.91037C10.5317 7.07648 10.6127 7.26374 10.6968 7.4583C10.8818 7.88606 11.0821 8.34916 11.2787 8.70067C11.5362 9.16087 12.0803 10 13.0997 10C14.2985 10 14.978 9.21075 15.3559 8.77182C15.3914 8.73066 15.4241 8.69256 15.4545 8.6585C15.6688 8.4177 15.8226 8.26719 15.9929 8.16416C16.1407 8.07475 16.3372 8 16.6597 8C16.8263 8 17.104 8.09281 17.4913 8.53575C17.8714 8.97051 18.2426 9.61797 18.5869 10.4056C19.207 11.8241 19.6581 13.5038 19.9319 14.697Z" fill="#9881F3"/>
<path fill-rule="evenodd" clip-rule="evenodd" d="M15.4545 8.65851C15.4242 8.69255 15.3914 8.73062 15.356 8.77177C14.9781 9.2107 14.2985 10 13.0997 10C12.0803 10 11.5362 9.16087 11.2787 8.70067C11.0821 8.34916 10.8818 7.88606 10.6969 7.4583C10.6127 7.26376 10.5318 7.07647 10.4557 6.91037C10.1781 6.30388 9.90144 5.80982 9.57308 5.47C9.27517 5.1617 8.95709 5 8.52255 5C8.34716 5 8.03235 5.10737 7.63259 5.80554C7.24682 6.47925 6.93008 7.4671 6.68384 8.62789C6.22703 10.7813 6.06549 13.2641 6.00924 14.7423C6.00387 14.8835 6.11715 15 6.25842 15H19.6891C19.8488 15 19.9677 14.8526 19.932 14.697C19.6581 13.5038 19.207 11.8241 18.5869 10.4056C18.2426 9.61797 17.8714 8.97051 17.4913 8.53575C17.104 8.09281 16.8263 8 16.6597 8C16.3372 8 16.1407 8.07475 15.9929 8.16416C15.8226 8.26719 15.6688 8.4177 15.4545 8.65851ZM19.6891 16H6.25842C5.556 16 4.98279 15.4183 5.00996 14.7043C5.06682 13.2101 5.23073 10.659 5.70561 8.42037C5.95941 7.22396 6.3021 6.11666 6.76478 5.30863C7.23872 4.48093 7.81956 4 8.52255 4C9.27172 4 9.83837 4.30546 10.2922 4.77512C10.745 5.24376 11.0791 5.86946 11.365 6.49417C11.4454 6.6699 11.5299 6.86519 11.6121 7.05535L11.6147 7.0614C11.806 7.50382 11.985 7.91483 12.1515 8.21244C12.2644 8.41439 12.4012 8.62474 12.5742 8.78116C12.7316 8.9235 12.8932 9 13.0997 9C13.8034 9 14.2154 8.56381 14.5981 8.11936L14.6009 8.11609C14.6343 8.07736 14.6716 8.03394 14.7075 7.99367C14.9286 7.74527 15.1667 7.49526 15.4752 7.30856C15.7816 7.12318 16.1577 7 16.6597 7C17.2326 7 17.7614 7.32545 18.2441 7.87755C18.7209 8.42291 19.1407 9.17592 19.5032 10.005C20.1605 11.5087 20.628 13.2593 20.9066 14.4732C21.0881 15.2639 20.4825 16 19.6891 16Z" fill="#7961DB"/>
</svg>
