<svg width="24" height="24" viewBox="0 0 24 24" fill="none" xmlns="http://www.w3.org/2000/svg">
<metadata>{"backgroundColor":"#5AD9CF"}</metadata>
<g clip-path="url(#clip0_399_190)">
<path d="M0 1C0 0.447715 0.447715 0 1 0H3C3.55228 0 4 0.447715 4 1V3H0V1Z" fill="#00A396"/>
<path d="M0 3C0 2.44772 0.447715 2 1 2H3C3.55228 2 4 2.44772 4 3V5C4 5.55228 3.55228 6 3 6H1C0.447715 6 0 5.55228 0 5V3Z" fill="#007067"/>
<path d="M0 19C0 18.4477 0.447715 18 1 18H3C3.55228 18 4 18.4477 4 19V21H0V19Z" fill="#00A396"/>
<path d="M0 21C0 20.4477 0.447715 20 1 20H3C3.55228 20 4 20.4477 4 21V23C4 23.5523 3.55228 24 3 24H1C0.447715 24 0 23.5523 0 23V21Z" fill="#007067"/>
<rect x="14" y="10" width="6" height="2" fill="#5AD9CF"/>
<path d="M4 1H12C13.1046 1 14 1.89543 14 3V5H4V1Z" fill="#5AD9CF"/>
<path d="M12 3C13.1046 3 14 3.89543 14 5V12H20V14H14V21C14 22.1046 13.1046 23 12 23H4V20H10V5H4V3H12Z" fill="#00A396"/>
<path d="M20 10C20 9.44772 20.4477 9 21 9H23C23.5523 9 24 9.44772 24 10V12H20V10Z" fill="#00A396"/>
<path d="M20 12C20 11.4477 20.4477 11 21 11H23C23.5523 11 24 11.4477 24 12V14C24 14.5523 23.5523 15 23 15H21C20.4477 15 20 14.5523 20 14V12Z" fill="#007067"/>
<path d="M4 19H10V20C10 20.5523 9.55228 21 9 21H4V19Z" fill="#5AD9CF"/>
</g>
<defs>
<clipPath id="clip0_399_190">
<rect width="24" height="24" fill="white"/>
</clipPath>
</defs>
</svg>
