<?xml version="1.0" encoding="UTF-8"?>
<svg width="24px" height="24px" viewBox="0 0 24 24" version="1.1" xmlns="http://www.w3.org/2000/svg" xmlns:xlink="http://www.w3.org/1999/xlink">
    <title>quiver-app</title>
    <metadata>{"backgroundColor":"#ad99ff"}</metadata>
    <defs>
        <path d="M22.5,15 L3,15 L3,11.115 L7.5,6.615 L12.435,11.55 C12.705,11.835 13.08,12 13.5,12 C13.92,12 14.295,11.835 14.565,11.565 L23.565,2.565 C23.835,2.295 24,1.92 24,1.5 C24,0.675 23.325,0 22.5,0 C22.08,0 21.705,0.165 21.435,0.435 L13.5,8.385 L8.565,3.435 C8.295,3.165 7.92,3 7.5,3 C7.08,3 6.705,3.165 6.435,3.435 L3,6.885 L3,1.5 C3,0.675 2.325,0 1.5,0 C0.675,0 0,0.675 0,1.5 L0,16.5 C0,17.325 0.675,18 1.5,18 L22.5,18 C23.325,18 24,17.325 24,16.5 C24,15.675 23.325,15 22.5,15 Z" id="path-1"></path>
    </defs>
    <g id="Page-1" stroke="none" stroke-width="1" fill="none" fill-rule="evenodd" opacity="0.800000012">
        <g id="quiver-app" fill-rule="nonzero">
            <g id="Shapes" transform="translate(0.000000, 3.000000)">
                <g id="Shape">
                    <use fill="#9179F2" fill-rule="evenodd" xlink:href="#path-1"></use>
                    <path stroke-opacity="0.15" stroke="#000000" stroke-width="1" d="M22.5,15.5 L2.5,15.5 L2.5,10.9078932 L7.5,5.90789322 L7.85355339,6.26144661 L12.7979763,11.2061277 C12.977083,11.3951847 13.2225041,11.5 13.5,11.5 C13.7765136,11.5 14.0274501,11.3954431 14.2114466,11.2114466 L23.2114466,2.21144661 C23.3954431,2.0274501 23.5,1.77651359 23.5,1.5 C23.5,0.951142375 23.0488576,0.5 22.5,0.5 C22.2234864,0.5 21.9725499,0.604556879 21.7888871,0.788219377 L13.4997971,9.09297872 L13.1459105,8.73801648 L8.21144661,3.78855339 C8.0274501,3.60455688 7.77651359,3.5 7.5,3.5 C7.22348641,3.5 6.9725499,3.60455688 6.78932282,3.78778228 L2.5,8.09583577 L2.5,1.5 C2.5,0.951142375 2.04885763,0.5 1.5,0.5 C0.951142375,0.5 0.5,0.951142375 0.5,1.5 L0.5,16.5 C0.5,17.0488576 0.951142375,17.5 1.5,17.5 L22.5,17.5 C23.0488576,17.5 23.5,17.0488576 23.5,16.5 C23.5,15.9511424 23.0488576,15.5 22.5,15.5 Z"></path>
                </g>
            </g>
        </g>
    </g>
</svg>