<?xml version="1.0" encoding="UTF-8"?>
<svg width="24" height="24" viewBox="0 0 24 24" fill="none" xmlns="http://www.w3.org/2000/svg">
    <metadata>{"backgroundColor":"#86C9CD"}</metadata>
    <path d="M11 7C8.5 7.5 7 9.63863 7 12C7 14.6543 9.36079 16.7909 12.0151 16.7909C12.6529 16.7909 13.2616 16.6667 13.8185 16.4411L17.5203 22.6674C15.871 23.5191 13.9992 24 12.0151 24C5.37934 24 0 18.6207 0 11.9849C0 5.63772 4.76479 0.44005 11 0V7Z" fill="#58CDCD"/>
    <path d="M18.9853 21.7727C21.8208 19.7499 23.7401 16.6824 24 13H17C16.8104 14.0517 16 15 15.2689 15.522L18.9853 21.7727Z" fill="#FFCF08"/>
    <path d="M24 11H17C17 9 14.5 7 13 7V0C18.9517 0.420044 23.58 5.04826 24 11Z" fill="#216565"/>
    <path d="M10.5 0.5491V6.60493C7.98429 7.29646 6.5 9.55438 6.5 12C6.5 14.9595 9.11464 17.2909 12.0151 17.2909C12.5662 17.2909 13.0983 17.2068 13.599 17.0504L16.813 22.4561C15.3529 23.1262 13.7282 23.5 12.0151 23.5C5.65548 23.5 0.5 18.3445 0.5 11.9849C0.5 6.07657 4.79779 1.22042 10.5 0.5491ZM17.3907 13.5H23.4508C23.0854 16.5944 21.4808 19.2051 19.1313 21.0399L15.9222 15.6424C16.5206 15.1236 17.1191 14.3686 17.3907 13.5ZM13.5 0.548714C18.7663 1.16113 22.8389 5.23375 23.4513 10.5H17.4581C17.2906 9.49243 16.6425 8.56643 15.9016 7.8826C15.1946 7.22997 14.3101 6.71227 13.5 6.55179V0.548714Z" stroke="#111418" stroke-opacity="0.15"/>
    <defs>
        <clipPath id="clip0_751_4969">
        <rect width="24" height="24" fill="white"/>
        </clipPath>
    </defs>
</svg>
