<svg width="24" height="24" viewBox="0 0 24 24" fill="none" xmlns="http://www.w3.org/2000/svg">
    <metadata>{"backgroundColor":"#184A90"}</metadata>
    <path fill-rule="evenodd" clip-rule="evenodd"
          d="M10 18C10 14.685 12.685 12 16 12C19.315 12 22 14.685 22 18C22 21.315 19.315 24 16 24C12.685 24 10 21.315 10 18ZM15.4061 18.8805L14.9147 22.8123L18.8464 16.9147H16.3891L16.8805 12.9829L12.9488 18.8805H15.4061Z"
          fill="#184A90"/>
    <path fill-rule="evenodd" clip-rule="evenodd"
          d="M2 2C2 1.45421 2.47408 1 3.01988 1H10C10.5458 1 11 1.45421 11 2V5C11 5.54579 10.5458 6 10 6H7C7.46152 8.25483 9.593 9 12 9V8C12 7.45421 12.4542 7 13 7H20C20.5458 7 21 7.45421 21 8V13C21 13.0324 20.9984 13.0645 20.9953 13.0962C19.7251 11.8025 17.9563 11 16 11C14.5128 11 13.1338 11.4638 12 12.2547V12C9.59265 12 7.46113 12.7447 7 15H9.67363C9.24169 15.9093 9 16.9264 9 18C9 18.695 9.10128 19.3663 9.28988 20H2.98825C2.44245 20 2 19.5458 2 19V16C2 15.4542 2.44245 15 2.98825 15H5C5.33752 13.0004 7.68307 11.2876 9.5 10.5C7.68337 9.71164 5.3378 7.9992 5 6H3C2.45421 6 2 5.54579 2 5V2Z"
          fill="#184A90"/>
</svg>
