<?xml version="1.0" encoding="UTF-8"?>
<svg width="24px" height="24px" viewBox="0 0 24 24" version="1.1" xmlns="http://www.w3.org/2000/svg" xmlns:xlink="http://www.w3.org/1999/xlink">
    <title>Templates</title>
    <metadata>{"backgroundColor":"#a7b6c2"}</metadata>
    <g id="Artboard" stroke="none" stroke-width="1" fill="none" fill-rule="evenodd">
        <g id="Group" transform="translate(0.000000, 6.000000)" fill-rule="nonzero">
            <path d="M6,12 C2.6862915,12 0,9.3137085 0,6 C0,2.6862915 2.6862915,0 6,0 C7.72056786,8.28642096e-06 8.98066918,0.494830116 10.5242793,1.76978287 C10.0713449,2.21894941 9.59150496,2.71617656 9.07663934,3.265475 C8.53573401,3.84255459 8.08435071,4.30647858 7.70789102,4.67651652 C7.03979343,4.19004903 6.52152344,4.00000251 6,4 C4.8954305,4 4,4.8954305 4,6 C4,7.1045695 4.8954305,8 6,8 C7.07653744,8.00004326 8.13958775,7.18972959 10.5358485,4.63321352 C13.7634016,1.18981044 15.332023,1.28493276e-05 18,0 C21.3137085,0 24,2.6862915 24,6 C24,9.3137085 21.3137085,12 18,12 C16.2795083,12.0000433 15.0115365,11.5050722 13.4678836,10.229995 C13.9204781,9.78114862 14.3999328,9.28431656 14.914348,8.73549869 C15.4557781,8.15785925 15.9075266,7.69356379 16.2842396,7.32329392 C16.952433,7.80991612 17.4785357,8.00004326 18,8.00004326 C19.1045695,8 20,7.1045695 20,6 C20,4.8954305 19.1045695,4 18,4 C16.9230741,4.00000519 15.8522182,4.81037071 13.4551389,7.36776015 C10.2284974,10.8101905 8.66752988,12.0000433 6,12.0000433 L6,12 Z" id="Combined-Shape" fill="#8A9BA8"></path>
            <path d="M6,1 C3.23857625,1 1,3.23857625 1,6 C1,8.76142375 3.23857625,11 6,11 C8.17364151,11.0000433 9.45628563,10.1717779 12.7255343,6.68389089 C15.3421699,3.89226186 16.5414279,3.00000702 18,3 C19.6568542,3 21,4.34314575 21,6 C21,7.65683769 19.6568794,8.99997837 18,9.00004326 C17.4691152,9.00004326 16.960421,8.86745079 16.4318546,8.59337933 C16.1905873,8.84110344 15.9281947,9.11611646 15.6439526,9.41936795 C15.4147874,9.66385905 15.1955315,9.8948965 14.9846696,10.1139524 C15.9655178,10.7538443 16.8526597,11.0000288 18,11 C20.7614237,11 23,8.76142375 23,6 C23,3.23857625 20.7614237,1 18.0000048,1 C15.8231874,1.00001048 14.5312865,1.83283929 11.2654531,5.31708279 C8.64299292,8.11492585 7.45657936,9.00005853 6,9 C4.34314575,9 3,7.65685425 3,6 C3,4.34314575 4.34314575,3 6.00000482,3 C6.53004503,3.00000255 7.0343863,3.13187291 7.56084447,3.40582422 C7.80164316,3.1585629 8.06346789,2.88413678 8.34703476,2.58160574 C8.57673774,2.33654086 8.7964835,2.1049924 9.00779789,1.88547801 C8.0279243,1.24512789 7.14562531,1.00000552 6,1 Z M0,6 C0,2.6862915 2.6862915,0 6,0 C7.72056786,8.28642096e-06 8.98066918,0.494830116 10.5242793,1.76978287 C10.0713449,2.21894941 9.59150496,2.71617656 9.07663934,3.265475 C8.53573401,3.84255459 8.08435071,4.30647858 7.70789102,4.67651652 C7.03979343,4.19004903 6.52152344,4.00000251 6,4 C4.8954305,4 4,4.8954305 4,6 C4,7.1045695 4.8954305,8 6,8 C7.07653744,8.00004326 8.13958775,7.18972959 10.5358485,4.63321352 C13.7634016,1.18981044 15.332023,1.28493276e-05 18,0 C21.3137085,0 24,2.6862915 24,6 C24,9.3137085 21.3137085,12 18,12 C16.2795083,12.0000433 15.0115365,11.5050722 13.4678836,10.229995 C13.9204781,9.78114862 14.3999328,9.28431656 14.914348,8.73549869 C15.4557781,8.15785925 15.9075266,7.69356379 16.2842396,7.32329392 C16.952433,7.80991612 17.4785357,8.00004326 18,8.00004326 C19.1045695,8 20,7.1045695 20,6 C20,4.8954305 19.1045695,4 18,4 C16.9230741,4.00000519 15.8522182,4.81037071 13.4551389,7.36776015 C10.2284974,10.8101905 8.66752988,12.0000433 6,12.0000433 C2.6862915,12 0,9.3137085 0,6 Z" id="Combined-Shape" fill-opacity="0.2" fill="#000000"></path>
        </g>
    </g>
</svg>