<svg width="24" height="24" viewBox="0 0 24 24" fill="none" xmlns="http://www.w3.org/2000/svg">
    <title>threads-app</title>
    <metadata>{"backgroundColor": "#9881F3" }</metadata>
<path d="M21 1V6.26087V23C21 23.5523 20.5523 24 20 24H4C3.44772 24 3 23.5523 3 23V6.63255C3 6.39277 3.08615 6.16098 3.24275 5.97942L8.10082 0.346873C8.29078 0.126628 8.56722 0 8.85807 0H20C20.5523 0 21 0.447716 21 1Z" fill="white"/>
<path d="M20.5 1V6.26087V23C20.5 23.2761 20.2761 23.5 20 23.5H4C3.72386 23.5 3.5 23.2761 3.5 23V5.62019C3.5 5.50405 3.54043 5.39154 3.61435 5.30196L7.42685 0.681767C7.52183 0.566661 7.66327 0.5 7.8125 0.5H20C20.2761 0.5 20.5 0.723857 20.5 1Z" stroke="#9881F3"/>
<path d="M13 16H20V17H13V16Z" fill="#1C2127" fill-opacity="0.2"/>
<path d="M9 16H12V17H10C9.44772 17 9 16.5523 9 16V16Z" fill="#1C2127" fill-opacity="0.2"/>
<path d="M22 7.5H9C8.44772 7.5 8 7.94772 8 8.5V14.5C8 15.0523 8.44772 15.5 9 15.5H11.5C11.7761 15.5 12 15.7242 12 16.0004V16.5747C12 17.0473 12.5952 17.256 12.8904 16.887L13.8499 15.6877C13.9448 15.569 14.0884 15.5 14.2403 15.5H22C22.5523 15.5 23 15.0523 23 14.5V8.5C23 7.94772 22.5523 7.5 22 7.5Z" fill="#BDADFF"/>
<path d="M9 7.5H22C22.2761 7.5 22.5 7.72386 22.5 8V15C22.5 15.2758 22.276 15.5 21.9995 15.5H14.2682C13.9346 15.5 13.6214 15.6665 13.4355 15.9453L12.5 17.3486L12.5 16.5C12.5 15.9478 12.0523 15.5 11.5 15.5H9C8.72386 15.5 8.5 15.2761 8.5 15V8C8.5 7.72386 8.72386 7.5 9 7.5Z" stroke="#5642A6"/>
<rect x="11" y="11" width="9" height="1" fill="#5642A6"/>
<path d="M7.5 1V4.5C7.5 5.05228 7.05292 5.5 6.50063 5.5C5.60999 5.5 4.38896 5.5 4 5.5" stroke="#9881F3"/>
</svg>
