<svg width="24" height="24" viewBox="0 0 24 24" fill="none" xmlns="http://www.w3.org/2000/svg">
<title>time-series-catalog-app</title>
<metadata>{"backgroundColor":"#4C90F0"}</metadata>
<g clip-path="url(#clip0_26_9)">
<path d="M0.649994 21.5833C0.649994 20.5248 1.50811 19.6667 2.56666 19.6667H23.65V23.5H2.56666C1.50811 23.5 0.649994 22.6419 0.649994 21.5833Z" fill="white"/>
<path d="M23.2377 0.50798H4.48187V19.4623H23.2377V0.50798Z" fill="#DBEAFF" stroke="#215DB0" stroke-width="0.882625"/>
<path d="M23.2377 21.9106H23.679V21.028H23.2377V21.9106ZM3.59924 21.028C3.35551 21.028 3.15793 21.2256 3.15793 21.4693C3.15793 21.7131 3.35551 21.9106 3.59924 21.9106V21.028ZM23.2377 21.028H3.59924V21.9106H23.2377V21.028Z" fill="#215DB0"/>
<path d="M4.27698 0.507718V19.462C2.38902 19.4621 0.751605 19.4621 0.730132 21.4691C0.730132 22.0277 0.78861 22.4309 0.928115 22.7218C1.12036 23.0555 1.46248 23.2841 2.05708 23.4033C2.54618 23.476 3.19451 23.476 4.03994 23.476C3.17926 23.5244 2.5362 23.4994 2.05708 23.4033C1.47948 23.3175 1.12395 23.1302 0.928115 22.7218C0.560508 22.0837 0.740794 21.0614 0.751505 19.6852C0.751609 13.6644 0.96699 4.83573 0.96699 3.18362C0.96699 0.864505 3.17365 0.433387 4.27698 0.507718Z" fill="#DBEAFF"/>
<path d="M4.03994 23.476C12.8293 23.476 23.6979 23.4759 23.6979 23.4759M4.03994 23.476C0.0687385 23.699 0.730678 22.3611 0.751504 19.6852C0.751608 13.6644 0.966989 4.83573 0.966989 3.18362C0.966989 0.864505 3.17365 0.433387 4.27698 0.507718V19.462C2.3889 19.4621 0.751605 19.462 0.730131 21.4691C0.730131 23.476 1.4849 23.476 4.03994 23.476Z" stroke="#215DB0" stroke-width="0.882625"/>
<path fill-rule="evenodd" clip-rule="evenodd" d="M7.64669 7.91315C7.64669 5.8426 9.24673 4.16409 11.3173 4.16409C13.3878 4.16409 14.6321 5.8426 14.6321 7.91315V13.4611C14.6321 14.176 15.5629 14.776 16.2779 14.776C16.9928 14.776 17.8683 14.176 17.8683 13.4611V7.24067C17.8683 5.54153 19.1113 4.16409 20.8104 4.16409V6.28239C20.2812 6.28239 19.8522 6.71143 19.8522 7.24067V13.4611C19.8522 15.3459 18.1627 16.9213 16.2779 16.9213C14.393 16.9213 12.8668 15.3459 12.8668 13.4611V7.91315C12.8668 7.10618 12.2179 6.28239 11.3173 6.28239C10.4166 6.28239 9.6305 7.10618 9.6305 7.91315V13.0128C9.6305 14.7119 8.38756 16.0893 6.68842 16.0893V13.971C7.21766 13.971 7.64669 13.542 7.64669 13.0128V7.91315Z" fill="#4C90F0" stroke="#215DB0" stroke-width="0.588417"/>
</g>
<defs>
<clipPath id="clip0_26_9">
<rect width="24" height="24" fill="white"/>
</clipPath>
</defs>
</svg>
