<?xml version="1.0" encoding="UTF-8"?>
<svg width="24" height="24" viewBox="0 0 24 24" fill="none" xmlns="http://www.w3.org/2000/svg">
<title>Training</title>
<metadata>{"backgroundColor": "#2D72D2" }</metadata>
<path fill-rule="evenodd" clip-rule="evenodd" d="M18 11H6V15.5555C6 16.3213 6.49081 17.1585 7.58626 17.854C8.66958 18.5419 10.2274 19 12 19C13.7726 19 15.3304 18.5419 16.4137 17.854C17.5092 17.1585 18 16.3213 18 15.5556V11ZM19 10V15.5555C19 18.0101 15.866 20 12 20C8.13401 20 5 18.0102 5 15.5556V10H19Z" fill="#184A90"/>
<path d="M6 11H18V15.5556C18 16.3213 17.5092 17.1585 16.4137 17.854C15.3304 18.5419 13.7726 19 12 19C10.2274 19 8.66958 18.5419 7.58626 17.854C6.49081 17.1585 6 16.3213 6 15.5555V11Z" fill="#8ABBFF"/>
<path fill-rule="evenodd" clip-rule="evenodd" d="M10.8043 3.29165C11.5502 2.90278 12.4498 2.90278 13.1957 3.29165L23.4741 8.65018C24.1753 9.01574 24.1753 9.98426 23.4741 10.3498L13.1957 15.7083C12.4498 16.0972 11.5502 16.0972 10.8043 15.7083L0.525899 10.3498C-0.175299 9.98426 -0.1753 9.01574 0.525899 8.65018L10.8043 3.29165ZM12.7174 4.14147C12.2699 3.90815 11.7301 3.90815 11.2826 4.14147L1.00417 9.5L11.2826 14.8585C11.7301 15.0919 12.2699 15.0919 12.7174 14.8585L22.9958 9.5L12.7174 4.14147Z" fill="#184A90"/>
<path d="M1.00439 9.49995L11.2828 4.14142C11.7304 3.9081 12.2701 3.9081 12.7176 4.14142L22.9961 9.49995L12.7176 14.8585C12.2701 15.0918 11.7304 15.0918 11.2828 14.8585L1.00439 9.49995Z" fill="#8ABBFF"/>
<path d="M12.0474 9.00229C11.7725 8.97611 11.5285 9.17773 11.5023 9.45263C11.4761 9.72753 11.6777 9.9716 11.9526 9.99778L21.5474 10.9116C21.8041 10.936 22 11.1515 22 11.4093V14.0854C21.4174 14.2913 21 14.8469 21 15.5001V18.5001C21 18.7762 21.2239 19.0001 21.5 19.0001C21.7761 19.0001 22 18.7762 22 18.5001C22 18.7762 22.2239 19.0001 22.5 19.0001C22.7761 19.0001 23 18.7762 23 18.5001C23 18.7762 23.2239 19.0001 23.5 19.0001C23.7761 19.0001 24 18.7762 24 18.5001V15.5001C24 14.847 23.5826 14.2914 23 14.0854V11.4093C23 10.636 22.4121 9.9894 21.6422 9.91608L12.0474 9.00229Z" fill="#184A90"/>
</svg>
