<?xml version="1.0" encoding="UTF-8"?>
<svg width="24px" height="24px" version="1.1" viewBox="0 0 24 24" xmlns="http://www.w3.org/2000/svg">
 <title>Upgrade Assistant app</title>
 <metadata>{"backgroundColor":"#a7b6c2"}</metadata>
    <path d="M7.04464 9.99996H8V12H4V20H20V12H16V9.99996H16.9554C18.6197 9.99996 19.5558 8.0858 18.5341 6.77208L17.1558 5H23C23.5523 5 24 5.44772 24 6V23C24 23.5523 23.5523 24 23 24H1C0.447716 24 0 23.5523 0 23V6C0 5.44771 0.447715 5 1 5H6.84422L5.46594 6.77208C4.44416 8.0858 5.38035 9.99996 7.04464 9.99996Z" fill="#8ABBFF"/>
    <path d="M8 11H3V21H21V11H16V12H20V20H4V12H8V11Z" fill="#2D72D2"/>
    <path d="M6.06645 6L6.84422 5H1C0.447715 5 0 5.44771 0 6V23C0 23.5523 0.447716 24 1 24H23C23.5523 24 24 23.5523 24 23V6C24 5.44772 23.5523 5 23 5H17.1558L17.9336 6L23 6V23H1L1 6L6.06645 6Z" fill="#2D72D2"/>
    <path fill-rule="evenodd" clip-rule="evenodd" d="M11.2106 1.01484C11.611 0.500098 12.389 0.500097 12.7893 1.01484L17.7447 7.38602C18.2556 8.04288 17.7875 8.99996 16.9554 8.99996H15V20H9V8.99996H7.04464C6.21249 8.99996 5.7444 8.04288 6.25528 7.38602L11.2106 1.01484Z" fill="#FBB360"/>
    <path fill-rule="evenodd" clip-rule="evenodd" d="M14 7.99996H16.9554L12 1.62878L7.04464 7.99996L10 7.99996L10 20L14 20L14 7.99996ZM7.04464 8.99996C6.21249 8.99996 5.7444 8.04288 6.25528 7.38602L11.2106 1.01484C11.611 0.500098 12.389 0.500097 12.7893 1.01484L17.7447 7.38602C18.2556 8.04288 17.7875 8.99996 16.9554 8.99996H15V20H9V8.99996H7.04464Z" fill="#C87619"/>
</svg>
