<?xml version="1.0" encoding="UTF-8"?>
<svg width="24" height="24" viewBox="0 0 24 24" fill="none" xmlns="http://www.w3.org/2000/svg">
    <title>Value Types App</title>
    <metadata>{"backgroundColor":"#00A396"}</metadata>
    <g id="App Icon &#226;&#128;&#147; 24x24">
        <path fill-rule="evenodd" clip-rule="evenodd" d="M13.8341 8.56913C14.4167 9.57885 14.75 10.7505 14.75 12C14.75 13.2495 14.4167 14.4211 13.8341 15.4309C14.4894 15.8693 15.2773 16.125 16.125 16.125C18.4032 16.125 20.25 14.2782 20.25 12C20.25 9.72183 18.4032 7.875 16.125 7.875C15.2773 7.875 14.4894 8.13069 13.8341 8.56913ZM12 6.4995C10.851 5.63642 9.42271 5.125 7.875 5.125C4.07804 5.125 1 8.20304 1 12C1 15.797 4.07804 18.875 7.875 18.875C9.42271 18.875 10.851 18.3636 12 17.5005C13.149 18.3636 14.5773 18.875 16.125 18.875C19.922 18.875 23 15.797 23 12C23 8.20304 19.922 5.125 16.125 5.125C14.5773 5.125 13.149 5.63642 12 6.4995ZM10.1659 15.4309C9.58333 14.4212 9.25 13.2495 9.25 12C9.25 10.7505 9.58333 9.57885 10.1659 8.56913C9.51061 8.13068 8.72266 7.875 7.875 7.875C5.59683 7.875 3.75 9.72183 3.75 12C3.75 14.2782 5.59683 16.125 7.875 16.125C8.72266 16.125 9.51061 15.8693 10.1659 15.4309Z" fill="#00A396"/>
        <path fill-rule="evenodd" clip-rule="evenodd" d="M15.168 9.02399C15.5433 9.94288 15.75 10.9481 15.75 12C15.75 13.0519 15.5433 14.0571 15.168 14.976C15.4692 15.0728 15.7906 15.125 16.125 15.125C17.8509 15.125 19.25 13.7259 19.25 12C19.25 10.2741 17.8509 8.875 16.125 8.875C15.7906 8.875 15.4692 8.92724 15.168 9.02399ZM13.8341 8.56913C14.4167 9.57885 14.75 10.7505 14.75 12C14.75 13.2495 14.4167 14.4211 13.8341 15.4309C13.9852 15.532 14.1434 15.6234 14.3077 15.7042C14.4437 15.771 14.5839 15.8306 14.7279 15.8824C15.1642 16.0394 15.6346 16.125 16.125 16.125C18.4032 16.125 20.25 14.2782 20.25 12C20.25 9.72183 18.4032 7.875 16.125 7.875C15.6346 7.875 15.1642 7.96058 14.7279 8.11762C14.5839 8.16942 14.4437 8.229 14.3077 8.29584C14.1434 8.37662 13.9852 8.46802 13.8341 8.56913ZM12 6.4995C13.149 5.63642 14.5773 5.125 16.125 5.125C19.922 5.125 23 8.20304 23 12C23 15.797 19.922 18.875 16.125 18.875C14.5773 18.875 13.149 18.3636 12 17.5005C10.851 18.3636 9.42271 18.875 7.875 18.875C4.07804 18.875 1 15.797 1 12C1 8.20304 4.07804 5.125 7.875 5.125C9.42271 5.125 10.851 5.63642 12 6.4995ZM12 18.7093C13.1999 19.4484 14.6137 19.875 16.125 19.875C20.4742 19.875 24 16.3492 24 12C24 7.65076 20.4742 4.125 16.125 4.125C14.6137 4.125 13.1999 4.55159 12 5.29068C10.8001 4.55159 9.3863 4.125 7.875 4.125C3.52576 4.125 0 7.65076 0 12C0 16.3492 3.52576 19.875 7.875 19.875C9.3863 19.875 10.8001 19.4484 12 18.7093ZM8.83203 14.976C8.45673 14.0571 8.25 13.0519 8.25 12C8.25 10.9481 8.45673 9.94288 8.83203 9.02398C8.53084 8.92724 8.20943 8.875 7.875 8.875C6.14911 8.875 4.75 10.2741 4.75 12C4.75 13.7259 6.14911 15.125 7.875 15.125C8.20943 15.125 8.53084 15.0728 8.83203 14.976ZM10.1659 15.4309C9.58333 14.4212 9.25 13.2495 9.25 12C9.25 10.7505 9.58333 9.57885 10.1659 8.56913C10.0148 8.46802 9.85662 8.37662 9.69227 8.29584C9.55628 8.229 9.41607 8.16942 9.27215 8.11762C8.83583 7.96058 8.36541 7.875 7.875 7.875C5.59683 7.875 3.75 9.72183 3.75 12C3.75 14.2782 5.59683 16.125 7.875 16.125C8.36541 16.125 8.83583 16.0394 9.27215 15.8824C9.41607 15.8306 9.55628 15.771 9.69227 15.7042C9.85661 15.6234 10.0148 15.532 10.1659 15.4309Z" fill="#007067"/>
   </g>
</svg>
