<?xml version="1.0" encoding="UTF-8"?>
<svg width="24px" height="24px" viewBox="0 0 24 24" version="1.1" xmlns="http://www.w3.org/2000/svg" xmlns:xlink="http://www.w3.org/1999/xlink">
    <title>Map app</title>
    <metadata>{"backgroundColor":"#43BF4D"}</metadata>
    <g fill="#238C2C">
        <path d="M1.5,0 C0.675,0 0,0.707142857 0,1.57142857 L0,20.4285714 C0,21.2928571 0.675,22 1.5,22 L22.5,22 C23.325,22 24,21.2928571 24,20.4285714 L24,1.57142857 C24,0.707142857 23.325,0 22.5,0 L1.5,0 Z M21.5,20 L2.5,20 C2.22385763,20 2,19.7761424 2,19.5 L2,2.5 C2,2.22385763 2.22385763,2 2.5,2 L21.5,2 C21.7761424,2 22,2.22385763 22,2.5 L22,19.5 C22,19.7761424 21.7761424,20 21.5,20 Z" fill-rule="nonzero"></path>
        <path d="M2,6 L2,5 L5,5 C5,4.44771525 5.44771525,4 6,4 L9,4 L9,3.5 C9,3.22385763 9.22385763,3 9.5,3 C9.77614237,3 10,3.22385763 10,3.5 L10,4 C10,4.55228475 9.55228475,5 9,5 L9,6 L10,6 L10,5.5 C10,5.22385763 10.2238576,5 10.5,5 C10.7761424,5 11,5.22385763 11,5.5 L11,7 C11,7.51283584 10.6139598,7.93550716 10.1166211,7.99327227 L10,8 L9,8 L9,9 L9.5,9 C9.77614237,9 10,9.22385763 10,9.5 C10,9.77614237 9.77614237,10 9.5,10 L9,10 C8.44771525,10 8,9.55228475 8,9 L7,9 L7,12 L9,12 C9.51283584,12 9.93550716,12.3860402 9.99327227,12.8833789 L10,13 C10.5522847,13 11,13.4477153 11,14 L11,15 C11,15.5128358 10.6139598,15.9355072 10.1166211,15.9932723 L10,16 C10,16.5128358 9.61395981,16.9355072 9.11662113,16.9932723 L9,17 L9,18.5 C9,18.7761424 8.77614237,19 8.5,19 C8.22385763,19 8,18.7761424 8,18.5 L8,18 C7.44771525,18 7,17.5522847 7,17 L7,15 C6.44771525,15 6,14.5522847 6,14 L6,11 C5.44771525,11 5,10.5522847 5,10 L5,9 L4,9 C3.44771525,9 3,8.55228475 3,8 L3,6 L2,6 Z M15,9 C15.5128358,9 15.9355072,9.38604019 15.9932723,9.88337887 L16,10 L18,10 C18.5128358,10 18.9355072,10.3860402 18.9932723,10.8833789 L19,11 C19.5522847,11 20,11.4477153 20,12 L20,13 C20,13.5128358 19.6139598,13.9355072 19.1166211,13.9932723 L19,14 L19,15 C19,15.5522847 18.5522847,16 18,16 L18,17 C18,17.5522847 17.5522847,18 17,18 C16.4477153,18 16,17.5522847 16,17 L16,15 C15.4477153,15 15,14.5522847 15,14 L15,13 L14,13 C13.4477153,13 13,12.5522847 13,12 L13,11 C13,10.4477153 13.4477153,10 14,10 C14,9.44771525 14.4477153,9 15,9 Z M20,4 C20.5128358,4 20.9355072,4.38604019 20.9932723,4.88337887 L21,5 L22,5 L22,11 L21,11 C20.4477153,11 20,10.5522847 20,10 L19,10 C18.4477153,10 18,9.55228475 18,9 L18,8 L17,8 L17,8.5 C17,8.77614237 16.7761424,9 16.5,9 C16.2238576,9 16,8.77614237 16,8.5 L16,8 L15,8 C15,8.55228475 14.5522847,9 14,9 L13.5,9 C13.2238576,9 13,8.77614237 13,8.5 C13,8.22385763 13.2238576,8 13.5,8 L14,8 C14,7.44771525 14.4477153,7 15,7 L15,6 C15,5.44771525 15.4477153,5 16,5 L18,5 C18,4.44771525 18.4477153,4 19,4 L20,4 Z M12.5,3 C12.7761424,3 13,3.22385763 13,3.5 L13,4.5 C13,4.77614237 12.7761424,5 12.5,5 C12.2238576,5 12,4.77614237 12,4.5 L12,3.5 C12,3.22385763 12.2238576,3 12.5,3 Z M2,4 C2.55228475,4 3,4.44771525 3,5 L3,5 L3,5 L2,5 L2,4 Z"></path>
    </g>
</svg>
