<?xml version="1.0" encoding="UTF-8"?>
<svg width="24px" height="24px" viewBox="0 0 24 24" version="1.1" xmlns="http://www.w3.org/2000/svg" xmlns:xlink="http://www.w3.org/1999/xlink">
    <metadata>{"backgroundColor":"#9179F2"}</metadata>
    <defs>
        <linearGradient x1="81.0578571%" y1="92.0123347%" x2="18.9421429%" y2="7.98766529%" id="linearGradient-1">
            <stop stop-color="#F5F8FA" offset="0%"></stop>
            <stop stop-color="#FEFFFF" offset="95.35%"></stop>
            <stop stop-color="#FFFFFF" offset="100%"></stop>
        </linearGradient>
        <linearGradient x1="81.0578571%" y1="112.759167%" x2="18.9421429%" y2="-12.7591667%" id="linearGradient-2">
            <stop stop-color="#F5F8FA" offset="0%"></stop>
            <stop stop-color="#FEFFFF" offset="95.35%"></stop>
            <stop stop-color="#FFFFFF" offset="100%"></stop>
        </linearGradient>
        <linearGradient x1="81.0578571%" y1="50.3201998%" x2="18.9421429%" y2="49.6798002%" id="linearGradient-3">
            <stop stop-color="#F5F8FA" offset="0%"></stop>
            <stop stop-color="#FEFFFF" offset="95.35%"></stop>
            <stop stop-color="#FFFFFF" offset="100%"></stop>
        </linearGradient>
    </defs>
    <g stroke="none" stroke-width="1" fill="none" fill-rule="evenodd">
        <g transform="translate(-13.000000, -13.000000)">
            <g transform="translate(13.000000, 13.000000)">
                <g>
                    <g fill-rule="nonzero">
                        <rect fill="url(#linearGradient-1)" x="1" y="1" width="22" height="18"></rect>
                        <g id="Group" opacity="0.8" fill="#7157D9">
                            <path d="M23,19 L1,19 L1,1 L23,1 L23,19 Z M1.5,0 C0.675,0 0,0.642857143 0,1.42857143 L0,18.5714286 C0,19.3571429 0.675,20 1.5,20 C6.03444008,20 9.43527015,20 11.7024902,20 C14.1019368,20 17.7011068,20 22.5,20 C23.325,20 24,19.3571429 24,18.5714286 L24,1.42857143 C24,0.642857143 23.325,0 22.5,0 L1.5,0 Z" id="Shape"></path>
                        </g>
                    </g>
                    <rect stroke="#7157D9" fill="#9179F2" opacity="0.800000012" x="2.5" y="2.5" width="19" height="5"></rect>
                    <rect stroke="#7157D9" fill="#9179F2" opacity="0.800000012" x="12.5" y="9.5" width="9" height="8"></rect>
                    <path d="M10.5,9.5 L2.5,9.5 L2.5,17.5 L10.5,17.5 L10.5,9.5 Z" id="Shape" stroke="#7157D9" fill="#9179F2" opacity="0.800000012"></path>
                </g>
                <rect fill="#7157D9" opacity="0.8" x="4" y="21" width="16" height="3" rx="1"></rect>
                <rect fill="#7157D9" fill-rule="nonzero" opacity="0.8" x="10" y="20" width="4" height="1"></rect>
                <rect fill="url(#linearGradient-2)" fill-rule="nonzero" x="11" y="20" width="2" height="2"></rect>
                <rect fill="#A7B6C2" fill-rule="nonzero" x="11" y="19" width="2" height="1"></rect>
                <rect fill="url(#linearGradient-3)" fill-rule="nonzero" x="5" y="22" width="14" height="1" rx="0.5"></rect>
            </g>
        </g>
    </g>
</svg>
